<svg id="Layer_1" data-name="Layer 1" xmlns="http://www.w3.org/2000/svg" viewBox="0 0 391.24 390.79"><defs><style>.cls-1{fill:#282560;}</style></defs><path class="cls-1" d="M1093.82,547.3v10.52a67,67,0,0,1-7-.05c-3.48-.37-4.71.86-4.61,4.44.22,8.32-.21,16.67.18,25,.22,4.92-1,7.29-6.29,6.4a29.11,29.11,0,0,0-4.94-.05C1069.26,601,1070,606,1073.25,606s7.44.2,9-1.62.34-6,.34-9.65h11.23c0,6.43.11,13-.13,19.6,0,.88-1.83,2.41-2.83,2.42-14.14.16-28.28.11-43,.11-.13-2.44-.17-4.54-.35-6.62-.26-2.93.82-4.08,4-4.14,7.83-.17,7.84-.33,7.78-8.1,0-1.3-.21-2.59-.35-4.16h-12.24c-.17,3.7-.33,7.12-.51,11.24-2.75,0-5.2.09-7.63,0-3-.14-4.14,1.23-4.07,4.2.14,5.16.23,10.34,0,15.49-.22,4,1.31,5.31,5.2,5.17,8.13-.31,7,.3,6.72,6.64-.14,3.77,1.19,5,4.9,4.8,6.13-.27,12.28-.07,18.77-.07v11h-33.9a24.44,24.44,0,0,1-.43-2.78c-.32-8.75-.31-8.75-8.85-8.74h-15.34c-.29,4-.56,7.55-.85,11.54h-10.47c-.17-3.44-.35-7-.56-11.26l-11.4-.51v-8.42c0-7.83-.12-15.66,0-23.49,0-2.6-1-3.43-3.47-3.63-9.16-.72-9.18-.77-9.5,8.55,0,.82-.17,1.63-.3,2.77-3.59.42-8.18-.34-10.32,1.6-1.94,1.76-1.23,6.46-1.75,10.36H952.75c0-2.68.4-5.37-.16-7.84-.31-1.38-2.21-3.39-3.43-3.41-13.82-.24-27.66-.1-41.49-.18-3.44,0-3.62,2-3.6,4.6.06,6.29,0,12.58,0,19.08H882.18V618.37a45.58,45.58,0,0,1,6.2-.29c3.83.31,5.43-1,5.28-5.06-.26-7.23-1.06-7.09,7-6.81,3.82.13,5-1.35,4.86-5-.18-6.12,0-12.25,0-18,.89-.53,1.15-.82,1.44-.84,9.08-.64,9.07-.64,9.09,8.31,0,3.83.29,7.68.06,11.49-.19,3.23,1.2,4.18,4.1,3.95a20.56,20.56,0,0,1,4,0c3.77.43,4.88-1.24,4.82-4.9-.18-12.16-.07-24.33-.08-36.49V559c2.29-.1,3.94,0,5.54-.28,2-.3,5.6-.53,5.75-1.33a37.65,37.65,0,0,0,.11-10.34c0-.48-2.22-1.08-3.43-1.11-5.66-.12-11.33,0-17-.1-3.16-.09-3.94,1.29-3.84,4.24.2,6.29.06,12.59.06,19.29H881.71c0-2.44.12-4.72,0-7-.2-3,1.28-3.72,3.92-3.67,5.17.1,10.34-.08,15.5.06,3.18.09,4.53-1.06,4.41-4.36-.17-4.83.19-9.67,0-14.49-.17-3.64.94-5,4.79-4.89,7.52.23,7,.58,6.63-6.63-.19-4.17,1.22-5.83,5.38-5.28a39.93,39.93,0,0,0,5.16,0,34.72,34.72,0,0,1,.49,3.73c.11,8.27,2.21,10,10.34,8,1.1-.28,2.27-2.48,2.44-3.91a80.94,80.94,0,0,0,.12-9.48v-9.88h22.58c0,6.8.15,13.42-.18,20,0,.84-2.58,2.22-4,2.22-8.24,0-7.62-.25-7.65,8.17,0,7.83.13,15.67-.09,23.5-.1,3.72,1.17,4.91,4.91,4.8,7-.22,7,0,7,7,0,3.83-.2,7.68.07,11.49s-1.37,5-5,4.8c-2.2-.1-6.16.12-6.36.93-.78,3.13-.5,6.56-.25,9.85,0,.63,1.66,1.48,2.64,1.63,1.79.26,3.67-.09,5.48.1,3.54.38,4.86-1.19,4.63-4.6-.14-2.15,0-4.31,0-7.24H987.9V582.07l-11.26-.55c0-6.93-.11-13.7.14-20.45,0-.79,1.94-2,3.08-2.16,7.84-.92,7.94-.83,8.48-8.31.18-2.45.93-3.6,3.55-3.59,17.49.08,35,.06,52.49.1a5,5,0,0,1,1.34.38c.21.35.5.61.53.9.27,3.13-.54,7.06,1.07,9.14,1.26,1.63,5.53.76,8.36,1.44a4.13,4.13,0,0,1,2.6,2.71c.39,2.4.12,4.9.12,7.83l-11.59.52v11.8h24c0-7.14.1-14.54-.14-21.94,0-.72-2.06-1.81-3.25-2a63.85,63.85,0,0,0-7.78-.1v-10.1a6.58,6.58,0,0,1,1.32-.56c9.88-1,9.88-1,9.92-11.28,0-1,0-2,0-3,0-8.82,0-8.71,8.86-9.85,1.14-.15,2.7-2,2.92-3.26.46-2.55.14-5.24.14-8.2H1094c0,6.66.09,13.42-.11,20.17,0,.78-1.55,1.93-2.56,2.17a15.89,15.89,0,0,1-5,.12c-3-.26-4.27,1-4,4,.18,2.64,0,5.31,0,8.56Zm-94.66,46.88c11.57,0,22.5.09,33.44-.16,1,0,2.9-2.17,2.93-3.37.23-9.81.25-19.63,0-29.43,0-1.18-2.26-3.25-3.52-3.29-9.8-.27-19.62-.25-29.43,0-1.15,0-3.2,1.91-3.22,3C999.07,571.68,999.16,582.48,999.16,594.18ZM1011.35,618c2.65,0,5.32-.16,8,0,3.56.26,4.82-1.35,4.48-4.71a19.6,19.6,0,0,1,0-4c.34-3.31-1.2-4.43-4.36-4.33a128.8,128.8,0,0,1-14.44,0c-4.91-.41-6.22,1.42-5.91,6.16.44,6.9.13,6.92,7.27,6.88Z" transform="translate(-703.43 -262.08)"/><path class="cls-1" d="M987.38,511.14v11.72a37.06,37.06,0,0,0,6.35.28c4.47-.55,6.16,1.24,5.52,5.6-.21,1.46-.2,3-.33,5a39.79,39.79,0,0,1-6.44.32c-4.33-.48-5.75,1.46-5.22,5.46.06.49,0,1,0,1.5.56,4-1.13,5.52-5.07,5a41.07,41.07,0,0,0-5.24,0V499.27c2.46,0,4.9-.14,7.31,0,3,.23,4.19-.85,4.08-4-.19-5-.18-10,.11-15,.25-4.33-1.27-6.2-5.73-5.57-4,.57-6.64-.07-6.31-5.35.24-3.88.83-5.84,5.25-5.48a108.42,108.42,0,0,0,13.49,0c3-.13,4.15,1,4.08,4-.14,6.3,0,12.61,0,18.64.67.46.92.78,1.21.81,11.39,1.33,11.39,1.33,11.38-9.85,0-1.66,0-3.33,0-5,0-8.81,0-9-8.83-9.73-3.83-.33-3-2.86-3.06-5-.17-6.81-.13-6.82-6.73-6.83-4.17,0-8.34-.18-12.49.08-5,.31-4-3.15-4.14-6s0-5.15,4.06-5c8.82.24,17.66-.12,26.48.11,3.77.09,5-1.12,4.77-4.87-.29-4.81.12-9.66-.11-14.49-.16-3.45,1-4.68,4.52-4.55,8.62.3,7.39.31,7.51-7.5.07-4.33-.1-8.66.06-13,.1-3-1.17-4-4.13-4.12-8.58-.31-8.58-.41-8.58,8.16a95,95,0,0,0,.1,10c.48,4.69-1.38,6.41-5.93,5.81a45.26,45.26,0,0,0-5.74,0c-.15,1.4-.35,2.49-.36,3.59-.1,9.14-1.3,10-10.72,7.47V405.31c1.1-.19,1.89-.4,2.69-.45,8.72-.52,8.72-.51,8.73-9.46V382.29c.66-.52.89-.86,1.16-.9,3.4-.45,8.05.32,9.87-1.59s.91-6.54,1.22-10.31h21.71c.63,3.86.77,7.7,2.12,11,.37.93,4.33.54,6.65.54,9.39,0,2.58-7.95,6-11.46,2.89-.37,7.52.35,9.61-1.62,1.89-1.79,1-6.51,1.44-10.75,6.64,0,13.39-.09,20.14.11.81,0,2,1.49,2.27,2.48a15.58,15.58,0,0,1,.15,5c-.24,3.12.8,4.42,4.2,4.42,7.48,0,7.46.19,7.48,7.52a88.31,88.31,0,0,0,.2,9.49c.48,4.46-1.29,6.16-5.65,5.53-1.61-.24-3.26-.22-5.31-.34-.13-1.9-.3-3.5-.33-5.1-.11-6.35-.1-6.37-6.68-6.39-4.49,0-9,.14-13.49,0-3.23-.11-4.37,1.1-4.33,4.37.15,11.66.06,23.33.06,35,0,9.09-.81,9.7-10.83,7.42,0-2.46-.09-5.08,0-7.69s-.92-3.74-3.53-3.4a12.5,12.5,0,0,1-1.5,0c-7.9-.05-10.12,2.75-7.88,10.4.29,1,2,2,3.19,2.17a66.6,66.6,0,0,0,8.17.1c.16,2,.19,3.49.4,4.91.69,4.67-1,6.89-6,6.17-4.26-.62-6.81.74-6,5.64.79,4.74-1.14,6.83-6,6.07-4.59-.71-6.28,1.26-5.94,5.88a142.91,142.91,0,0,1,0,14.49c-.1,3.13.94,4.76,4.27,4.52a33.79,33.79,0,0,1,4.5,0c3.24.2,4.39-1.29,4.32-4.48-.12-5.82.06-11.65.15-17.48a5.48,5.48,0,0,1,.66-1.56h9.35c.48,3.8-.24,8.42,1.73,10.56,1.76,1.91,6.49,1.09,10.41,1.54.12,1.3.19,2.74.41,4.16.74,4.76-1.14,6.92-6,6.14s-6.49,1.38-6.07,6.13c.36,4.13-.17,8.34.15,12.48s-1,5.92-5.24,5.33a39.73,39.73,0,0,0-5.15,0c-.18-1.72-.41-3-.43-4.28-.11-7.33-3.88-10.11-10.83-7.47-1.16.44-2,3.09-2.07,4.76-.33,7-.2,7-7.08,7H999.68c-.39,3.95.51,8.75-1.45,10.73S991.46,510.67,987.38,511.14ZM1034.54,399c-1,4.38,1.06,6.17,6.18,5.91,6.85-.35,6.54-.12,7-7,.35-5.28-1.72-6.56-6.58-6.3C1034.58,392,1034.56,391.73,1034.54,399Z" transform="translate(-703.43 -262.08)"/><path class="cls-1" d="M821.59,499.07c.42-3.58.85-7.17,1.31-11.11h21.22c.62,3.83,0,8.45,2.08,10.53,1.83,1.86,6.51.94,9.85,1.24.54,3.9.47,7.7,1.85,10.87.45,1,4.61.62,7.08.64,3.74,0,3.74-.05,5.19-11.78h45.89c2-5.5,10.42-11.54,15.82-11.65,4.66-.1,9.35.19,14-.17s6.38,1.5,5.75,6c-.2,1.44-.17,2.92-.28,5H939.76c0,2.92-.17,5.22,0,7.48.33,3.5-1.09,4.72-4.54,4.61-6.14-.19-12.29-.06-18.54-.06-.66,3.92-.51,8-2.22,11-.77,1.35-5.25.58-8.67.82-.13-2.3-.54-4.25-.3-6.12.61-4.78-1.57-6.31-6-5.72a9.44,9.44,0,0,1-2.49,0c-3.84-.51-4.86,1.32-4.73,4.91.3,8-.23,7.21-6.56,6.72-4.17-.32-5.79,1.32-5.32,5.42a54.07,54.07,0,0,1,0,5.89H870v-11.2c-7.62,0-14.69,0-21.75,0-1.5,0-3,.1-4.5.11-10.8.12-10.8.11-10.83,10.73,0,1.49,0,3,0,4.49,0,8.44,0,8.62,8.5,9.23,3.53.26,3.4,2.31,3.46,4.73.18,7.15.21,7.15,7.15,7.14a108.78,108.78,0,0,0,11-.11c4.9-.52,6.2,1.76,5.67,6.07-.18,1.45-.22,2.92-.37,5-6.35,0-12.48.33-18.56-.1s-4.67,3.53-4.93,6.85c-.28,3.67.29,6.32,5,5.69a58.37,58.37,0,0,1,6.85,0,67.74,67.74,0,0,1-.14,9c-.13.91-1.88,2.14-3,2.29-8.22,1.07-8.22,1-8.66,9.12a18,18,0,0,1-.33,1.9,7.45,7.45,0,0,1-1.53.48c-3,.24-6.84-.61-8.62.95s-1,5.45-1.45,8.32c-.62,4.42-4.08,2.18-6.33,2.59-2.44.45-4.1-.24-4.14-3.34-.07-6.46-.44-12.91-.68-19.37l-.15.16c12.82-.3,12.82-.3,12.83-12.95,0-11.52,0-11.51-11.5-11.53q-11.22,0-22.43-.12a6.18,6.18,0,0,1-1.37-.48V524a3.89,3.89,0,0,1,1-.53c10.51-.79,10.51-.79,10.52-11.31V499.72l11.05-.75a86.43,86.43,0,0,0-.24,8.95,4.19,4.19,0,0,0,2.17,3.14c8.18,2.33,11,.12,10.66-8.14,0-1.26-.31-2.52-.49-3.85Z" transform="translate(-703.43 -262.08)"/><path class="cls-1" d="M953,298.08c6.64,0,12.78-.14,18.91.05,3.46.11,4.73-1.16,4.68-4.63-.15-8.83.16-17.67-.12-26.49-.13-4.06,1.67-4.71,5.08-4.62,3.24.08,5.82-.09,5.78,4.52-.07,7.16.21,7.48,7.19,7.24,5-.18,4.53,2.7,4.74,6,.23,3.68-.87,5.14-4.72,5-2.29-.1-6.29.29-6.65,1.39a21.22,21.22,0,0,0-.22,9.78c.15.85,3.22,1.62,5,1.7,6.49.28,6.51.16,6.52,6.59,0,15.49-.13,31,.07,46.48,0,3.85-1,5.31-5,5.23-7-.14-7,.09-7,7,0,11.83-.15,23.66.07,35.48.07,4.08-1.47,5.06-5.28,5s-5.73-.72-5.55-5.2c.34-8.48-.07-17,.11-25.48.08-3.66-1.18-5-4.86-5.07-8.26-.13-8.27-.28-8.29,8,0,5,0,9.92,0,15.62-7.12,0-13.73.09-20.33-.12-.8,0-2.08-1.58-2.22-2.57a55.81,55.81,0,0,1-.1-7.54c6.35-.31,14.43,1.31,12-9.59-1.7-7.6-8.15-1.41-12-5,0-9.55-.08-19.83.05-30.11,0-4.49,3.76-2.65,6-2.93s4.82-.4,4.73,3.28c-.12,5.16.1,10.33-.07,15.49-.12,3.38,1,5.06,4.57,4.64a18.45,18.45,0,0,1,4,0c3.56.37,4.62-1.31,4.57-4.69-.13-9.16,0-18.32,0-27.49,0-.81.15-1.62.24-2.45a5.16,5.16,0,0,1,1.44-.62c8.85-.54,8.86-.54,8.91,8.13,0,3.66.11,7.33,0,11-.1,2.89.9,4.42,4,4.2,1.82-.13,3.84.45,5.44-.15,1.42-.54,3.33-2.2,3.41-3.46.34-5.31-.16-10.66.11-16,.19-4-1.24-5.5-5.15-5a57.49,57.49,0,0,1-6.08,0c-.14-2.13-.58-4.08-.34-6,.63-5-1.57-6.47-6.27-6.06-4,.34-8-.26-12,.15-4.88.51-6.24-1.64-5.68-6C952.9,301.58,952.9,300.26,953,298.08Z" transform="translate(-703.43 -262.08)"/><path class="cls-1" d="M785.29,570.79v81.68c-1.65.1-3.23.27-4.82.27-23.82,0-47.64-.06-71.46.13-4.2,0-5.32-1.32-5.3-5.4.17-24,.11-48,0-72,0-3.21.27-5.33,4.45-5.3,24.32.16,48.64.1,73,.14C782.45,570.36,783.74,570.62,785.29,570.79Zm-40.67,70.48c8.66,0,17.31-.1,26,.05,3.2.06,4.42-1,4.4-4.28-.12-17-.16-33.95,0-50.92,0-3.68-1.5-4.43-4.77-4.4q-25.71.16-51.42,0c-3.24,0-4.38,1-4.35,4.28q.17,25.46,0,50.92c0,3.64,1.46,4.49,4.76,4.43C727.65,641.17,736.14,641.28,744.62,641.27Z" transform="translate(-703.43 -262.08)"/><path class="cls-1" d="M785.27,263v81.27h-5.66c-23.49,0-47-.06-70.48.11-4.1,0-5.45-1.19-5.42-5.39.18-23.83.12-47.66.06-71.49,0-3,.21-5.09,4.12-5.07,25,.12,50,.08,75,.11A15.47,15.47,0,0,1,785.27,263Zm-10.38,40.55c0-8.49-.12-17,.06-25.45.07-3.55-1-5.06-4.78-5q-25.45.22-50.9,0c-3.81,0-4.86,1.51-4.83,5.05.11,17,.15,33.93,0,50.89,0,3.88,1.6,4.85,5.06,4.83q25.44-.17,50.9-.07c3.51,0,4.62-1.39,4.56-4.76C774.8,320.49,774.9,312,774.89,303.52Z" transform="translate(-703.43 -262.08)"/><path class="cls-1" d="M1012.07,344.21V263a42.54,42.54,0,0,1,4.24-.39c23.81-.05,47.62.05,71.42-.19,4.65-.05,6.35,1,6.3,6-.25,23.3-.1,46.61-.08,69.92,0,3.09.32,6-4.35,6C1064,344.15,1038.35,344.21,1012.07,344.21Zm70.77-40.69c0-8.67-.13-17.33.06-26,.08-3.55-1.25-4.55-4.68-4.53q-25.23.21-50.48,0c-3.59,0-5.12,1-5.09,4.77q.18,25.74,0,51.48c0,3.6,1.53,4.54,4.83,4.52,17-.11,34-.16,51,0,3.64,0,4.51-1.42,4.45-4.74C1082.74,320.51,1082.85,312,1082.84,303.52Z" transform="translate(-703.43 -262.08)"/><path class="cls-1" d="M975.26,427.07c-1.61.24-2.41.43-3.22.46-8.62.41-8.63.41-8.61,8.85,0,3.83.1,7.66,0,11.48-.07,2.82.8,4.19,4,4.33,8.86.4,9.07.83,7.18,10.29h-21.8a57.34,57.34,0,0,1,0-6.44c.46-4.11-1.45-5.56-5.23-5-5.24.83-7.72-.76-9.06-6.5-2.38-10.12-9.11-17.61-18-23-2.58-1.56-3.7-3.32-3.61-6.38.2-7.12.07-14.25.07-22.11,7.23,0,14-.16,20.71.22.8,0,2,3,2.06,4.64.37,6.68.24,6.94,6.93,6.8,4.06-.09,5.13,1.44,5,5.24-.23,6.3,0,6.32,6.48,6.35,3.83,0,7.68.26,11.48-.07,4.29-.38,6.33.92,5.65,5.49A38.15,38.15,0,0,0,975.26,427.07Zm-29.87,13.11c7.45-.07,7-.1,7.51-7.48.47-7.12-4.34-4.7-7.81-5.19-7-1-4.83,4.15-5.3,7.65C939,440.71,942.61,440.45,945.39,440.18Z" transform="translate(-703.43 -262.08)"/><path class="cls-1" d="M703.82,393.21h10.66c0,5.87.25,11.63-.08,17.36-.26,4.44.92,6.67,5.74,5.81s7.3.95,6.32,6.18c-1.25,6.6,3.31,5.55,7.31,5.82,4.3.29,6-1,5.69-5.55-.36-6.44-.07-6.47,6.56-6.46,4,0,8,.14,12,0,2.81-.1,3.89,1.05,3.83,3.81-.11,4.82-.2,9.65,0,14.47.15,3.45-1.12,4.66-4.59,4.68-6.91,0-7.18.22-6.92,6.84.16,4.22-1.64,5.06-5.3,5-2.12,0-5.9.56-6.08,1.44-.67,3.32-.28,6.88,0,10.33,0,.45,1.94,1,3,1.05,2.46.16,4.94.05,7.24.05a7.74,7.74,0,0,1,.84,1.78c.92,9,.91,9-7.89,9H727.41V458.62c0-5-.16-10,0-15,.12-3.18-.93-4.37-4.25-4.38-7.35,0-7.57-.2-7.46-7.5,0-3.76-1.57-4.43-4.79-4.38-7.24.13-7.12,1.52-7.1-7.26S703.82,402.56,703.82,393.21Z" transform="translate(-703.43 -262.08)"/><path class="cls-1" d="M870.19,405.29c1.08-.15,2-.35,3-.4,7.19-.37,7.1-.35,7.36,6.63.19,5.26-1,4.67,6.2,4.88-4.68,2.79-10.31,5.49-15.17,9.21a36.17,36.17,0,0,0-13.26,21.16c-.81,3.53-2.43,4.54-5.82,4.35-4.65-.25-9.34.18-14-.13-4.35-.29-6.25,1.2-5.69,5.65a56.72,56.72,0,0,1,0,6.2c-6.26,0-12.2.22-18.12-.07-4.21-.21-5.57,1.38-5.39,5.47.27,5.81.07,11.64.07,18-2.7.14-5.18.66-7.5.25-1.24-.22-3.1-2-3.12-3.15-.24-9.32-.07-18.65-.14-28,0-2.8,1.46-3.29,3.78-3.26,5,.07,10-.17,15,.07,3.69.17,5.1-1.22,5-4.88-.16-6.11,0-12.24,0-18.68h22.44a48.08,48.08,0,0,1,0,5.38c-.54,4.67,1.1,6.56,6.09,6.25,6.87-.42,6.9-.1,6.92-7.21,0-4.33.06-8.67,0-13,0-2.41.67-3.56,3.36-3.74,8.12-.56,8.1-.67,8.63-9A15.07,15.07,0,0,1,870.19,405.29Z" transform="translate(-703.43 -262.08)"/><path class="cls-1" d="M799.11,274.45H809a70.77,70.77,0,0,1,.32,7.33c-.18,3.28,1.2,4.59,4.39,4.33a22,22,0,0,1,4,0c3.47.35,4.77-1.22,4.7-4.61-.14-6.12,0-12.25,0-18.6,1.49-.18,2.61-.4,3.72-.42,6.58-.11,6.78-.09,6.75,6.73,0,3.89,1.3,5.23,5.23,5.13,6.75-.18,6.76,0,6.75,6.8,0,4-.1,8,0,12,.06,2.73-1,3.88-3.83,3.8-4.66-.14-9.33.18-14-.1-4.25-.25-6.3,1.09-5.73,5.6a49.61,49.61,0,0,1,0,5.9H811.16c-.45-3.48.25-8.05-1.71-10.23-1.75-1.93-6.44-1.19-10.34-1.7Z" transform="translate(-703.43 -262.08)"/><path class="cls-1" d="M844.82,381.64c0,5.9.25,11.55-.07,17.17-.29,4.91,1.7,6.64,6.39,6.08a30.91,30.91,0,0,1,5.19.27v10.32c-6.73,0-13.33.16-19.89-.22-.79-.05-1.9-3.05-2-4.73-.38-6.85-.26-6.87-7-6.92-4,0-8,.26-12-.07-4.79-.41-6.83,1.37-6.11,6.18.67,4.42-.92,6.22-5.69,6-3.91-.13-5.2-1.3-5.17-5.19.05-6.86-.17-7.19-7.25-6.85-4.67.22-4.5-2.24-4.59-5.5-.09-3.56.49-5.41,4.83-5.31,12.63.28,25.28,0,37.92.11,3.21,0,4.87-.71,5-4.36C834.72,380.2,834.87,380.21,844.82,381.64Z" transform="translate(-703.43 -262.08)"/><path class="cls-1" d="M904.22,343.87c-10.63.8-10.63.8-10.65-8.68,0-3.16-.22-6.33,0-9.48.31-4-1.48-5.22-5.28-5.08-5.95.23-11.91.06-18.21.06V310c5.83,0,11.76-.27,17.65.08,4.64.28,6.21-1.3,5.91-5.94-.35-5.52,3.74-8.08,8.81-5.67.94.45,1.6,2.33,1.69,3.59.51,7.78.44,7.78,8.54,8,.82,0,1.64.15,2.93.28v10.45c-2.27,0-4.54.14-6.78,0-3.43-.25-4.78,1.12-4.68,4.61C904.35,331.41,904.22,337.54,904.22,343.87Z" transform="translate(-703.43 -262.08)"/><path class="cls-1" d="M858.24,605c-.17-1.71-.31-2.68-.35-3.64-.3-7.13-.29-7.33,6.71-7.14,3.83.1,5.39-.94,5.19-5-.31-6.1-.08-12.23-.08-18.57,1.54-.16,2.5-.31,3.46-.34,7.24-.26,7.43-.25,7.25,7.06-.09,3.66.94,5.3,4.76,4.85,2-.22,4,0,7,0,0,7.15.09,14-.13,20.89,0,.68-1.85,1.85-2.85,1.87C879.05,605.1,868.9,605,858.24,605Z" transform="translate(-703.43 -262.08)"/><path class="cls-1" d="M880.52,296.62H870.05V274.93a7.93,7.93,0,0,1,1.8-.6c8.69-.64,8.57-.65,10-8.89a4.65,4.65,0,0,1,3.41-2.85c9.14-.25,18.28-.12,27.42-.18,4.43,0,3.31,3.25,3.44,5.68s.45,5.15-3.52,5c-5-.15-10,.2-15-.08-4.2-.24-5.94,1.42-5.3,5.46.84,5.26-1.27,7.38-6.5,6.56-4.06-.63-5.91,1-5.35,5.23A52.77,52.77,0,0,1,880.52,296.62Z" transform="translate(-703.43 -262.08)"/><path class="cls-1" d="M799,606.43h9.74c.52,3.77-.15,8.37,1.83,10.49,1.79,1.92,6.48,1.13,10.31,1.59v21.9H799Z" transform="translate(-703.43 -262.08)"/><path class="cls-1" d="M868.24,618v10.14c-3.88.52-7.65.42-10.78,1.79-1.09.48-.92,4.6-.77,7,.52,8.83,8,1.63,11.52,5.58v9.93H846c0-10.8-.07-21.38.12-32,0-.85,1.83-2.35,2.85-2.39C855.27,617.93,861.55,618,868.24,618Z" transform="translate(-703.43 -262.08)"/><path class="cls-1" d="M844.26,355.67c-3.5.47-8.07-.2-10.28,1.78-1.91,1.71-1.14,6.42-1.62,10.33-1.83.08-3.77.1-5.69.27-3.31.3-4.23-1.28-4.29-4.41-.12-7.18-.26-7.36-7.33-7.37-3.5,0-4.88-1.22-4.48-4.66.22-1.92.24-3.88.35-5.92,1.06-.16,1.69-.32,2.32-.35,8.29-.34,8.41-.32,9.11-8.49.42-4.94,4.07-2.64,6.41-3.13s4.4-.08,4.2,3.15c-.09,1.32,0,2.66-.08,4-.22,3.09,1,4.42,4.27,4.53C845.75,345.66,845.9,346,844.26,355.67Z" transform="translate(-703.43 -262.08)"/><path class="cls-1" d="M751.49,486.7V476c10.79,0,21.2-.14,31.59.24.89,0,2.24,3.42,2.31,5.29.06,1.69-.93,4.42-2.19,4.94-2.85,1.18-7.26.26-8.94,2.11s-.71,6-.93,9.12c0,.13-.17.26-.5.75a38.88,38.88,0,0,0-4.07.29c-4.77.79-6.39-1.38-5.61-5.83.81-4.67-.74-7-5.82-6.25A43.1,43.1,0,0,1,751.49,486.7Z" transform="translate(-703.43 -262.08)"/><path class="cls-1" d="M726,522.48c-6.62,0-13.21.09-19.8-.12-.82,0-2.16-1.52-2.27-2.46a75.5,75.5,0,0,1-.11-8.67c2.89,0,5.33-.16,7.73,0,3,.25,4-1,4.11-4,.3-8.82.42-8.82,10.34-7.52Z" transform="translate(-703.43 -262.08)"/><path class="cls-1" d="M1070,522.1h-10.17c-.38-3.83.47-8.41-1.4-10.35s-6.46-1.09-10.79-1.58a76,76,0,0,1,.12-8.51,3.42,3.42,0,0,1,2.46-2.24c6.46-.2,12.93-.11,19.78-.11Z" transform="translate(-703.43 -262.08)"/><path class="cls-1" d="M787,488.54c.52-.37.65-.53.79-.55,9.7-1.24,9.73-1.21,9.72,8.41,0,4,0,8-.08,11.94a18.46,18.46,0,0,1-.37,2.26c-6.43,0-13,.36-19.53-.13-4.33-.33-2.45-4.4-2.53-6.82,0-1.41,1.28-3.71,2.51-4.14,2.79-1,7.14,0,8.57-1.77C787.72,495.77,786.83,491.75,787,488.54Z" transform="translate(-703.43 -262.08)"/><path class="cls-1" d="M1070.21,462c-.64.4-.77.55-.91.57-10.11,1.34-10.12,1.29-10-8.63.08-6.48.34-13-.07-19.45-.34-5.18,1.55-7,6.5-6.16,1.43.24,2.88.28,4.49.43Z" transform="translate(-703.43 -262.08)"/><path class="cls-1" d="M858.11,379.63V345.92a6.47,6.47,0,0,1,1.62-.53c10.81-.12,8.72-.6,8.87,8.58.11,6.49,0,13,0,19.47s0,6.62-6.56,6.5C860.91,379.92,859.77,379.77,858.11,379.63Z" transform="translate(-703.43 -262.08)"/><path class="cls-1" d="M715.92,368c-.61-13.14-.92-10.6,9.08-10.8,7.29-.14,14.59.08,21.88,0,3.17-.05,3.68,1.76,3.29,4.14s1.83,6.47-2.78,6.61C737,368.24,726.59,368,715.92,368Z" transform="translate(-703.43 -262.08)"/><path class="cls-1" d="M773.39,511.26v11.09c-6.71,0-13.15.11-19.59-.13-.87,0-2.34-1.8-2.4-2.83-.27-5.48-.19-11-.2-16.47,0-5.14,3.91-3.22,6.52-3.61,3-.45,4.31,1,4.08,4-.06.83.08,1.68,0,2.49-.68,4.51,1.38,6.05,5.67,5.52A52.88,52.88,0,0,1,773.39,511.26Z" transform="translate(-703.43 -262.08)"/><path class="cls-1" d="M763.59,357.2c6.55,0,12.84,0,19.12,0,3.88,0,2.82,3.08,2.74,5.11s1.53,5.38-2.65,5.72c-.33,0-.66,0-1,0-7.72.5-7.82.5-8.06,8-.09,2.67-.8,4.06-3.71,3.83-2-.16-4,0-6.44,0Z" transform="translate(-703.43 -262.08)"/><path class="cls-1" d="M739.34,557.81c0-6.93-.2-13.08.16-19.2.08-1.21,2.11-2.88,3.54-3.29,2-.57,4.22-.14,6.8-.14.15,2.39.57,4.37.34,6.27-.54,4.41,1.17,6.27,5.57,5.58,4.79-.74,6.38,1.15,6.18,6.05-.15,3.81-1.34,4.92-4.95,4.78C751.36,557.65,745.72,557.81,739.34,557.81Z" transform="translate(-703.43 -262.08)"/><path class="cls-1" d="M856.6,320.09c-4.38.6-8.94-.07-10.78,1.86s-1.07,6.47-1.48,10.19h-9.87c0-6.59-.11-13.16.13-19.71,0-.84,1.85-2.25,2.89-2.29a147.94,147.94,0,0,1,15.9,0c1.13.07,2.77,1.88,3.07,3.15C857,315.48,856.6,317.84,856.6,320.09Z" transform="translate(-703.43 -262.08)"/><path class="cls-1" d="M953.22,641.4h21.63v11H953.22Z" transform="translate(-703.43 -262.08)"/><path class="cls-1" d="M821.7,594.11c-5.28-.19-10.57-.46-15.85-.53-7.54-.09-7.56,0-7.16-7.42.06-1.13.33-2.24.54-3.64h22.32v11.75Z" transform="translate(-703.43 -262.08)"/><path class="cls-1" d="M1034.32,499.3v22.78h-10.49c0-7-.08-13.72.12-20.49,0-.78,1.54-2.06,2.49-2.19A65.16,65.16,0,0,1,1034.32,499.3Z" transform="translate(-703.43 -262.08)"/><path class="cls-1" d="M821.08,369.43v10.45c-6.68,0-13.24.08-19.78-.11a3.47,3.47,0,0,1-2.4-2.32,66.18,66.18,0,0,1-.11-8Z" transform="translate(-703.43 -262.08)"/><path class="cls-1" d="M928.93,652.74c0-7.16,0-13.6,0-20,0-3.82,3-2.92,5.09-2.84s5.58-1.46,5.73,2.63c.21,5.8.19,11.62-.1,17.41,0,1-1.83,2.48-3,2.71C934.44,653.05,932.07,652.74,928.93,652.74Z" transform="translate(-703.43 -262.08)"/><path class="cls-1" d="M953.22,486.13a4.59,4.59,0,0,1-.25-.76c-.82-9.41-.82-9.41,8.39-9.41a93.84,93.84,0,0,0,9.49,0c4.76-.48,4.4,2.54,4.53,5.68.12,3.3-.34,5.42-4.49,5.17-5.31-.32-10.66-.11-16-.17A7.43,7.43,0,0,1,953.22,486.13Z" transform="translate(-703.43 -262.08)"/><path class="cls-1" d="M953,284.69V263.55c.45-.35.68-.69,1-.73,9.46-1.08,9.46-1.07,9.46,8.23a74.19,74.19,0,0,0,.07,8.44c.52,4.44-1.21,6.14-5.56,5.52C956.49,284.81,955,284.81,953,284.69Z" transform="translate(-703.43 -262.08)"/><path class="cls-1" d="M893.82,391.65V381.16c6.67,0,13.24-.25,19.76.28,1,.07,2.16,3.81,2.25,5.89,0,1.4-1.6,4.06-2.61,4.12C907,391.84,900.68,391.65,893.82,391.65Z" transform="translate(-703.43 -262.08)"/><path class="cls-1" d="M916.93,345.55q-.69,11-1.39,22c-.19.1-.33.24-.48.26-9.43,1.21-9.56,1.1-9.58-8.08,0-3.15.19-6.32-.05-9.45-.28-3.87,1.14-5.53,5.1-5,2.13.29,4.29.25,6.44.36Z" transform="translate(-703.43 -262.08)"/><path class="cls-1" d="M868.17,263c.17,1,.34,1.61.38,2.26.53,7.83.53,7.83-7.12,7.84a82.72,82.72,0,0,0-9.45,0c-4.91.55-6.7-1.42-6-6.15a32.27,32.27,0,0,0,0-4Z" transform="translate(-703.43 -262.08)"/><path class="cls-1" d="M890,454.24a14,14,0,0,0-1.32-2.72c-3.73-4.77-7.54-9.48-12-15.1l18.92,2.05-3.83,14.73Z" transform="translate(-703.43 -262.08)"/><path class="cls-1" d="M897.91,439.68l14.16,19-18.68-3.17Z" transform="translate(-703.43 -262.08)"/><path class="cls-1" d="M1076.56,416.49c4.19-.81,5.79.59,5.92,5.16.14,5.16-2.12,5.81-6.43,6-5,.24-5-2.32-5.27-6.05C1070.5,417,1072.45,415.68,1076.56,416.49Z" transform="translate(-703.43 -262.08)"/><path class="cls-1" d="M797.35,415.76v12c-3.49-.36-7.45.27-9.8-1.39-1.44-1-1.63-6.86-.21-8.17C789.39,416.27,793.42,416.55,797.35,415.76Z" transform="translate(-703.43 -262.08)"/><path class="cls-1" d="M1082.7,393.41c-.51,3.56.08,7.82-1.72,9.5s-7,1.57-8.72,0-1.23-5.92-1.77-9.53Z" transform="translate(-703.43 -262.08)"/><path class="cls-1" d="M821.05,415.88v12c-3.51-.56-7.52-.14-9.73-1.93-1.46-1.19-1.53-6.86-.09-8.18C813.18,416,817.18,416.49,821.05,415.88Z" transform="translate(-703.43 -262.08)"/><path class="cls-1" d="M906,641.48h9.7v11H906Z" transform="translate(-703.43 -262.08)"/><path class="cls-1" d="M832.26,641.62a8.36,8.36,0,0,1,.53,2c.05,2.79,0,5.58,0,8.76H822.62V641.62Z" transform="translate(-703.43 -262.08)"/><path class="cls-1" d="M1070,486.47h-10.4v-9.78C1070.27,474.46,1071.1,475.22,1070,486.47Z" transform="translate(-703.43 -262.08)"/><path class="cls-1" d="M1093.49,640.5h-9.93c-2.35-10.24-1.15-11.54,9.93-10.31Z" transform="translate(-703.43 -262.08)"/><path class="cls-1" d="M727,523.55h11.87c-.58,3.71-.16,7.7-2,9.93-1.12,1.41-6.88,1.31-8.17-.18C727,531.28,727.48,527.28,727,523.55Z" transform="translate(-703.43 -262.08)"/><path class="cls-1" d="M1093.09,499.26c-3.34-.63-7.32-.41-9.76-2.24-1.33-1-1.11-6.52.4-8.11s6.89-2,8.08-.68c2,2.22,2,6.21,2.86,9.46Z" transform="translate(-703.43 -262.08)"/><path class="cls-1" d="M716.14,535.4h10v10.2h-10Z" transform="translate(-703.43 -262.08)"/><path class="cls-1" d="M1083.17,475.12V463.84c3.47.41,7.41,0,10,1.58,1.3.8,1.33,7.07-.06,8.07C1090.79,475.18,1086.84,474.66,1083.17,475.12Z" transform="translate(-703.43 -262.08)"/><path class="cls-1" d="M868,402.88c-9.79,2.52-11.35,1-9.67-9.15C868.29,391.41,869.93,393,868,402.88Z" transform="translate(-703.43 -262.08)"/><path class="cls-1" d="M709.21,464.2c5.15-1.32,5.14,1.8,5.36,5.58.26,4.49-1.73,5.13-5.56,5.19-4.13.06-5.4-1.28-5.35-5.41S704.5,463,709.21,464.2Z" transform="translate(-703.43 -262.08)"/><path class="cls-1" d="M786.15,557.76H774.78c.39-3.74-.09-7.49,1.41-10.1.72-1.24,6.68-1.42,7.65-.13C785.59,549.87,785.38,553.69,786.15,557.76Z" transform="translate(-703.43 -262.08)"/><path class="cls-1" d="M846.22,545.45v-9.87h9.64C858.26,545.6,857.08,546.87,846.22,545.45Z" transform="translate(-703.43 -262.08)"/><path class="cls-1" d="M1035,522.27c5,1.06,8.93.84,11,2.73,1.35,1.21,1,6.63-.56,8.11s-7,1.73-8.16.35C1035.5,531.27,1035.87,527.29,1035,522.27Z" transform="translate(-703.43 -262.08)"/><path class="cls-1" d="M715.32,558.63c-5-1-8.91-.71-11-2.55-1.36-1.18-1.06-6.55.46-8.09s7-1.81,8.06-.47C714.65,549.71,714.37,553.66,715.32,558.63Z" transform="translate(-703.43 -262.08)"/><path class="cls-1" d="M1058.13,535.61v9.9h-9.72C1046,535.59,1047.16,534.27,1058.13,535.61Z" transform="translate(-703.43 -262.08)"/><path class="cls-1" d="M892,545.63h-9.52c-2.37-10.2-1.13-11.51,9.52-9.89Z" transform="translate(-703.43 -262.08)"/><path class="cls-1" d="M714,450.45c-10.22,1.81-11.52.47-9.54-10,1.49-.09,3.09-.22,4.68-.27s2.94,0,4.86,0Z" transform="translate(-703.43 -262.08)"/><path class="cls-1" d="M951.13,320.46h-9.92v-9.67C951.17,308.3,952.42,309.46,951.13,320.46Z" transform="translate(-703.43 -262.08)"/><path class="cls-1" d="M880,391.44h-9.93V382C879.67,379,881.39,380.49,880,391.44Z" transform="translate(-703.43 -262.08)"/><path class="cls-1" d="M785.36,380.64V392c-3.6-.51-7.4-.13-9.88-1.76-1.27-.84-1.29-6.67.08-7.73C777.74,380.82,781.55,381.23,785.36,380.64Z" transform="translate(-703.43 -262.08)"/><path class="cls-1" d="M939,369.5c2.34,10.06,1.1,11.37-9.7,10v-10Z" transform="translate(-703.43 -262.08)"/><path class="cls-1" d="M881.21,369.42h11.54c-.52,3.64-.17,7.43-1.8,9.94-.84,1.28-6.75,1.33-7.67,0C881.57,377,881.85,373.17,881.21,369.42Z" transform="translate(-703.43 -262.08)"/><path class="cls-1" d="M929.19,286.43h9.91c2,12.25.43,11.08-9.91,9.86Z" transform="translate(-703.43 -262.08)"/><path class="cls-1" d="M1012,534.41V523.07c3.59.34,7.54-.3,10,1.33,1.41.94,1.54,7.09.15,8.15C1019.81,534.31,1015.81,533.85,1012,534.41Z" transform="translate(-703.43 -262.08)"/><path class="cls-1" d="M785.33,523.68V534c-3.36-.22-7.69.74-9.33-.94s-.93-6.06-1.24-9.42Z" transform="translate(-703.43 -262.08)"/><path class="cls-1" d="M737.53,499.27c-3.31-.67-7.29-.5-9.67-2.36-1.3-1-1-6.57.6-8.11s7-1.87,8.14-.52c1.88,2.17,1.66,6.16,2.33,9.39Z" transform="translate(-703.43 -262.08)"/><path class="cls-1" d="M785.44,410.59c1.06,4.63-1.62,5-5.36,5.13-4.29.18-5.26-1.46-5.31-5.47-.06-4.53,1.68-5.54,5.89-5.59C785.32,404.61,786,406.83,785.44,410.59Z" transform="translate(-703.43 -262.08)"/><path class="cls-1" d="M928.36,273.72c.77-4.57.38-8.57,2.19-10.73,1.15-1.38,6.58-1.14,8.2.38s1.82,7,.5,8.09C937,273.25,933,272.91,928.36,273.72Z" transform="translate(-703.43 -262.08)"/><path class="cls-1" d="M882.63,392.55c3.18.6,7.1.33,9.27,2.14,1.28,1.06.79,6.27-.73,8.06-1.21,1.44-6.59,1.69-7.62.43-1.81-2.21-1.71-6-2.41-9.12Z" transform="translate(-703.43 -262.08)"/><path class="cls-1" d="M858.92,297.6c3.16.67,7.11.47,9.18,2.34,1.33,1.2.86,6.32-.66,8.1-1.21,1.42-6.61,1.58-7.69.27-1.84-2.22-1.73-6-2.44-9.19Z" transform="translate(-703.43 -262.08)"/><path class="cls-1" d="M726.34,481.69c1.14,4.71-1.58,4.95-5.25,5.14-4.41.24-5.6-1.26-5.64-5.59,0-4.6,1.81-5.33,5.88-5.43C726.05,475.69,727.18,477.63,726.34,481.69Z" transform="translate(-703.43 -262.08)"/><path class="cls-1" d="M965,557.2v-9.85h9.47C977,557.29,975.4,559,965,557.2Z" transform="translate(-703.43 -262.08)"/><path class="cls-1" d="M785.45,457.93c1.17,5-2.1,4.82-5.73,5.07-4.72.33-4.71-2.22-4.93-5.74-.31-4.88,2.2-5,6-5.24C785.57,451.78,785.93,454.25,785.45,457.93Z" transform="translate(-703.43 -262.08)"/><path class="cls-1" d="M750.76,382.06c-.69,3.15-.49,7.13-2.38,9.16-1.26,1.34-6.34.89-8.15-.62-1.43-1.19-1.62-6.66-.33-7.69,2.29-1.82,6.11-1.71,9.29-2.41Z" transform="translate(-703.43 -262.08)"/><path class="cls-1" d="M785.49,434.05c.54,3.46-.21,5.61-4.62,5.37-3.73-.2-6.17-.34-6.13-5.31s2-5.93,6.5-6C786.09,428.09,785.7,430.85,785.49,434.05Z" transform="translate(-703.43 -262.08)"/><path class="cls-1" d="M922.37,284.93c-4.71,1.05-5.38-1.46-5.49-5.52-.12-4.34,1.58-5.18,5.51-5.29,4.55-.13,5.59,1.73,5.59,5.85S926.54,285.84,922.37,284.93Z" transform="translate(-703.43 -262.08)"/><path class="cls-1" d="M916.51,296.67h-11c.26-3.37-.44-7.26,1.12-9.72.87-1.38,7.06-1.56,8-.21C916.4,289.08,916,293,916.51,296.67Z" transform="translate(-703.43 -262.08)"/><path class="cls-1" d="M738.88,404c-.73,4.78-.19,8.95-2,10.88-1.4,1.46-6.37,1-8.64-.4-1.32-.81-1.59-6.68-.34-7.61C730.33,405,734.17,405,738.88,404Z" transform="translate(-703.43 -262.08)"/><path class="cls-1" d="M939.33,331.94c-10.89,1.5-11.3,1.11-10-9.09C938.81,319.77,941,321.67,939.33,331.94Z" transform="translate(-703.43 -262.08)"/><path class="cls-1" d="M750.52,392.1c4.73,1.07,8.53,1,10.75,2.8,1.28,1.05,1.06,6.51-.36,7.63-1.84,1.47-7,1.82-8.11.49C751,400.79,751.35,396.86,750.52,392.1Z" transform="translate(-703.43 -262.08)"/><path class="cls-1" d="M750.84,451.55c4.47.78,8.47.36,10.33,2.15,1.4,1.34,1.13,6.62-.39,8.16s-7.14,1.77-8.11.46C751,460,751.45,456.12,750.84,451.55Z" transform="translate(-703.43 -262.08)"/><path class="cls-1" d="M763.59,545.56V535.45h9.66v10.11Z" transform="translate(-703.43 -262.08)"/><path class="cls-1" d="M917,345.66c0-1,0-2,0-3,0-9.46,0-9.46,10.45-8.77.14,2.29.28,4.68.41,7.06s-.94,3.42-3.54,3.41a42.9,42.9,0,0,0-7.4,1.14Z" transform="translate(-703.43 -262.08)"/><path class="cls-1" d="M798.62,343.92c0-2.17,0-4,0-5.76,0-1.29.23-2.58.37-4.14h10.1v9.9Z" transform="translate(-703.43 -262.08)"/><path class="cls-1" d="M763.52,450.42v-9.94h9.13C776.09,450,774.06,452.29,763.52,450.42Z" transform="translate(-703.43 -262.08)"/><path class="cls-1" d="M857.35,344.93c-4.8-.81-8.7-.46-11-2.22-1.28-1-.93-6.58.62-8s6.79-1.68,8.14-.27C856.94,336.27,856.53,340.25,857.35,344.93Z" transform="translate(-703.43 -262.08)"/><path class="cls-1" d="M881.19,345.35c-4.76-1.16-8.58-1.2-11-3.06-1.21-.92-.89-6.55.54-7.6,1.95-1.42,7-1.71,8.21-.32C880.72,336.52,880.35,340.51,881.19,345.35Z" transform="translate(-703.43 -262.08)"/><path class="cls-1" d="M858.12,469.78l9.1,16.59h-9.1Z" transform="translate(-703.43 -262.08)"/><path class="cls-1" d="M909.47,461.11l-13.69,6.49c-.76-3.08-1.41-5.74-2.39-9.71l16,2.23C909.39,460.45,909.43,460.78,909.47,461.11Z" transform="translate(-703.43 -262.08)"/><path class="cls-1" d="M886.39,476.54c1.68-5.69,3.12-10.53,4.65-15.7C895.51,469.32,894.82,471.82,886.39,476.54Z" transform="translate(-703.43 -262.08)"/><path class="cls-1" d="M909,451.37l8.16-1.61L914,457.37C912.31,455.33,911,453.79,909,451.37Z" transform="translate(-703.43 -262.08)"/><path class="cls-1" d="M1012.23,571c11-1.59,11.61-1.74,9.72,10.49h-9.72Z" transform="translate(-703.43 -262.08)"/><path class="cls-1" d="M761.79,611.5c0,4.49-.09,9,0,13.47.07,2.73-.92,3.87-3.76,3.83q-13.45-.16-26.93,0c-2.86,0-3.77-1.11-3.75-3.83q.12-13.46,0-26.93c0-2.7.9-3.89,3.77-3.86q13.46.17,26.93,0c2.89,0,3.79,1.21,3.74,3.87-.09,4.48,0,9,0,13.46Z" transform="translate(-703.43 -262.08)"/><path class="cls-1" d="M744.62,320.71c-4.49,0-9-.09-13.48,0-2.4.06-3.74-.52-3.71-3.28q.12-14,0-28c0-2.63,1.13-3.45,3.63-3.43q13.47.14,27,0c2.74,0,3.85,1,3.81,3.81q-.16,13.47,0,27c0,3.08-1.23,4-4.2,3.89C753.28,320.56,749,320.71,744.62,320.71Z" transform="translate(-703.43 -262.08)"/><path class="cls-1" d="M1070.07,320.42h-34V286.53h34Z" transform="translate(-703.43 -262.08)"/></svg>