<svg id="Layer_1" data-name="Layer 1" xmlns="http://www.w3.org/2000/svg" viewBox="0 0 857.77 858.27"><defs><style>.cls-1{fill:#282560;}</style></defs><path class="cls-1" d="M1287.75,878.35c-7.81-.13-15.62-.36-23.43-.25-1,0-2.77,1.88-2.78,2.91-.18,16.31-.12,32.62-.12,49.46h26c0,7.07.31,13.66-.1,20.21-.32,4.91,1.37,6.17,6.13,6.06,13.32-.32,26.65-.11,40-.1h5.71v25h-76.93V956.05c-7.32,0-14.07-.21-20.81.08-4.1.17-5.64-1.08-5.43-5.34.32-6.62.08-13.28.08-20.39h-26.65v14.78c0,10.83-.07,21.66.08,32.49,0,3.17-.87,4.51-4.24,4.41-6.8-.2-13.62-.06-21-.06V930.23h-26.16V878h-25.87V852.65h25.44V826.26h-52.1c-.08,1.4-.23,2.84-.23,4.28,0,31.15-.09,62.31.11,93.46,0,4.79-1.19,6.43-6.13,6.07-6.43-.47-12.93-.11-20.26-.11,0,7.1-.27,13.72.09,20.31.26,4.57-1.12,6.17-5.82,5.88-6.44-.41-12.93-.1-20.19-.1,0,7.21-.25,14,.09,20.75.22,4.29-1.32,5.49-5.4,5.3-6.3-.29-12.62-.08-19.36-.08V930.64c6.47,0,13.07-.27,19.64.08,4.86.27,6.33-1.47,6-6.24-.41-6.29-.1-12.62-.1-19.9,6.93,0,13.54-.31,20.1.1,4.93.31,6.15-1.44,6-6.18-.3-14-.19-28,0-42,0-3.41-.93-4.77-4.5-4.65-6.32.22-12.65.18-19,0-3.05-.11-3.67,1.29-3.62,3.89.11,6,0,12,.15,18,.1,3.27-1.13,4.37-4.38,4.27-7-.19-13.94-.06-21.56-.06v25.68H950.09c0-6.57-.31-13.17.1-19.72.31-4.95-1.47-6.18-6.2-6.07-13.31.3-26.64.11-40,.11h-5.9c0-8-.13-15.49.18-22.93,0-.87,2.43-2.3,3.79-2.35,6-.26,12-.23,18-.07,3,.08,4.11-1.07,4-4.09-.15-7.11,0-14.23,0-21.94,7.83,0,15.11-.14,22.37.17.91,0,2.38,2.43,2.44,3.79.27,6,.22,12,.09,18-.06,3,.94,4.19,4,4.1q9.5-.27,19,0c3,.08,4.14-.93,4.08-4-.16-7.13-.05-14.26-.05-21.74h24.88v25.61c8.77,0,16.85.09,24.92-.14.75,0,2-2,2.07-3.09.18-7.48.09-15,.09-23.15h-25.63V800.46c7.37,0,14.63-.1,21.88,0,2.78,0,3.86-.86,3.84-3.7-.1-15.66-.07-31.32-.11-47a10.77,10.77,0,0,0-.52-2h-23.67c-3.59,0-2.73,2.71-2.74,4.68,0,13.83-.16,27.66.09,41.48.09,4.46-1,6-5.79,6-21.81-.24-43.63-.19-65.45,0-4.54,0-6.2-1.22-5.91-5.91.39-6.27.1-12.58.1-19.24,1.94-.11,3.38-.27,4.82-.27,14.16,0,28.31-.17,42.47,0,3.82,0,4.92-1.3,4.79-4.91-.23-5.82-.27-11.67,0-17.49.15-3.57-1.26-4.68-4.62-4.59-5.66.16-11.33-.12-17,.09-3.53.12-4.62-1.28-4.52-4.68.2-6.62.06-13.24.06-20.21,2.13-.1,3.75-.23,5.37-.24,13.65,0,27.31-.16,41,.08,4.23.07,6.08-.91,5.77-5.51a135.24,135.24,0,0,1,0-16.48c.21-3.95-1.15-5.22-5.1-5.16-13.82.2-27.65-.08-41.46.18-4.36.08-5.92-1.17-5.61-5.62.38-5.47,0-11,.16-16.49.09-3.06-1.2-4.13-4.13-4.11q-22.49.09-45,0c-3,0-4.11,1.31-4,4.24.11,5.83-.09,11.66,0,17.49.08,3.1-.79,4.48-4.21,4.44q-21.24-.23-42.47,0c-3.27,0-4.42-1-4.33-4.31.17-6.64.05-13.29.05-20.75h18.62c7.41,0,7.42,0,7.42-7.19q0-43.49,0-87a14.48,14.48,0,0,1,.58-4.92c1.55,5,2.34,10.43,4.8,14.94,5.07,9.27,11.11,18,16.56,27.09,1.37,2.28,2.7,5,2.86,7.52.41,6.48.24,13,.11,19.49-.06,3,1.13,4.07,4.13,4.06,23.65-.09,47.33.78,70.93-.37,16.31-.79,31.21-7.58,44.5-17.32,2.55-1.86,4.81-4.13,7.45-5.83,1.83-1.18,4.07-2.37,6.14-2.4,14.66-.2,29.31,0,44-.16,3.55,0,5.19.78,5,4.68-.27,5.49-.14,11,0,16.49,0,2.75-1.08,3.9-3.85,3.85-5.82-.09-11.66.16-17.48-.07-3.47-.13-4.81,1.06-4.69,4.56.19,5.49-.15,11,.12,16.49.2,4-1.4,5.21-5.24,5-5.48-.26-11,.05-16.48-.09-3.21-.08-4.44,1.18-4.42,4.4q.15,22.24,0,44.48c0,3.27,1.17,4.37,4.4,4.29,7-.19,14-.06,21.68-.06v25.9H1079v51.79h52.59V773.66c-6.94,0-13.74-.16-20.53.06-3.75.11-5.41-.81-5.16-5,.38-6.45.1-12.94.1-19.81H1287.4c0,6.42.29,13-.1,19.57-.28,4.73,1.09,6.49,6,6.17,6.44-.41,12.93-.1,20.09-.1,0,7.9.11,15.51-.16,23.1,0,.77-2.29,2.07-3.54,2.1-7.14.21-14.29.1-22.25.1,0,8.47-.09,16.56.14,24.64,0,.72,2.07,2,3.19,2,16.14.13,32.29.09,48.87.09V773.68h-15.21c-10.42,0-10.42,0-10.42-10.65V748.64h25.61c.18-1.6.43-2.69.43-3.79,0-14.33.17-28.66-.12-43-.09-4.6,1.56-5.68,5.78-5.48,6.46.32,12.94.09,20.25.09V670.8h25.08c.12,1.51.34,2.94.34,4.37,0,13.83-.15,27.66.1,41.49.08,4.09-1.33,5.18-5.14,5-5.49-.27-11,0-16.49-.14-3-.07-4.6.6-4.46,4.15.26,6.32.19,12.67,0,19-.11,3.24,1.29,4,4.16,3.89,7.11-.13,14.22,0,21.6,0v25.07h-18.67c-7,0-7,0-7,7,0,22.16-.09,44.32.08,66.48,0,4-1,5.2-5.1,5-6.75-.39-13.55-.11-21-.11,0,8.43-.09,16.21.12,24a3.77,3.77,0,0,0,2.62,2.56c7.64.21,15.28.12,23.7.12V852.84h25.23v50.87c-1.82.1-3.44.26-5.06.26-30.81,0-61.62-.1-92.42.13-4.82,0-5.86-1.54-5.69-6,.25-6.62-.17-13.26-.3-19.89,7.79.1,15.58.26,23.37.21,1,0,2.79-1.18,2.8-1.85.2-8.2.13-16.4.13-24.69-8,0-15.34,0-22.63,0-2.15,0-4,.09-3.92,3.06C1287.58,862.77,1287.64,870.56,1287.75,878.35ZM1183.64,774v78.3c1.12.11,1.92.26,2.72.26,23.79,0,47.57-.06,71.36.11,3.77,0,4.33-1.5,4.32-4.73-.1-23.13,0-46.26-.07-69.39,0-1.43-.2-2.87-.32-4.55Zm-.28,130.24h52.2V878c-16.73,0-33-.05-49.24.12a4.12,4.12,0,0,0-2.83,2.85C1183.25,888.55,1183.36,896.18,1183.36,904.21Z" transform="translate(-533.74 -123.86)"/><path class="cls-1" d="M1080.05,565.05c0-7-.25-13.35.09-19.66.23-4.47-1-6.34-5.78-6-5.64.38-11.33-.07-17,.11-3,.09-4.24-.76-4.85-4a89,89,0,0,0-25.11-47.31c-6.38-6.38-14.6-10.91-21.84-16.46-1.49-1.14-3.34-3.1-3.36-4.7-.22-18.16-.12-36.32-.09-54.48a9,9,0,0,1,.47-1.73h50.52c0,6.19,0,12.45,0,18.72,0,6.88,0,6.89,6.67,6.9,13.83,0,27.65-.09,41.47.11,3.77,0,4.94-1.22,4.81-4.9-.24-6.79-.07-13.59-.07-21.15,7,0,13.6-.23,20.17.08,4.5.21,6-1.14,5.93-5.85-.31-14.15-.19-28.32,0-42.48,0-3.59-.92-5.1-4.76-5-7.12.25-14.25.07-22.12.07V409.1h-50.86V384.41c6.92,0,13.7-.21,20.45.08,4.21.18,5.54-1.33,5.33-5.45-.31-5.81-.17-11.66,0-17.49.06-2.85-.71-4.32-3.9-4.24-6.49.16-13,.14-19.48,0-2.65-.05-3.51,1.12-3.5,3.58,0,6.16.11,12.34-.25,18.48-.08,1.38-1.85,3.75-2.93,3.8-7.1.34-14.23.18-21.66.18V306.43c6.63,0,13.07-.21,19.49.07,4.59.21,6.66-1.06,6.25-6.11a135.23,135.23,0,0,1,0-16.48c.14-3.46-1-4.73-4.55-4.62-6.94.23-13.9.07-21.44.07,0-7.77-.14-15.05.16-22.32,0-.93,2.34-2.47,3.65-2.54a158.93,158.93,0,0,1,16.48,0c4.25.22,6-1,5.73-5.58-.37-6.62-.09-13.27-.09-20.52,7.77,0,15.06-.16,22.32.2,1,0,2.51,2.72,2.56,4.23.27,7.82.15,15.65.15,23.48,0,23.33.11,46.65-.1,70,0,4.77,1.29,6.64,6.18,6.24,4.64-.38,9.32-.11,14-.1,6.91,0,6.89,0,6.89-6.65q0-33,0-66v-5.29c7.91,0,15.49-.15,23,.21.83,0,2.16,3,2.18,4.56.17,14,.28,28,0,42-.08,4.28,1.27,5.42,5.34,5.23,6.62-.3,13.27-.08,20.35-.08v129h-25.58v26c-7.36,0-14.13.17-20.88-.06-3.84-.14-5.2,1-5.18,5.07q.17,34.49-.18,69c0,4.28,1.54,5.29,5.55,5.23,13.65-.21,27.31-.06,41-.05h5.76c0,7.56.17,14.67-.07,21.77-.12,3.31.92,4.4,4.21,4.31,7-.2,14-.06,21.52-.06v51.94c8.62,0,16.68.09,24.74-.14.75,0,2-2,2.06-3.11.15-15.49.08-31,.19-46.47,0-3.26-1.91-3.36-4.24-3.36-7,0-14,0-21.36,0V514.54h19.12c6.46,0,6.47,0,6.48-6.61,0-5.16.14-10.33-.06-15.49-.12-3,.88-4.14,4-4,5.49.21,11,.27,16.48,0,4-.21,5.07,1.2,5,5.13-.16,27-.08,54-.08,81,0,4.66.14,9.33,0,14-.12,3,1,4.15,4,4.06,6-.16,12-.24,18,.05,3.86.19,4.75-1.32,4.73-4.93-.14-22.32-.07-44.65-.07-67v-5.79h25.41v5.79c0,13.49.13,27-.08,40.48-.07,4.05,1,5.67,5.28,5.47,6.63-.31,13.29-.08,20.4-.08V591.5c-5.89,0-12,0-18,0-7.59,0-7.59,0-7.59,7.49,0,13.49.13,27-.07,40.48-.06,3.91,1.09,5.19,5.08,5.13,13.82-.22,27.64-.08,41.46-.08h5.24v50.92c-7.63,0-15.2.11-22.76-.16-.8,0-2.12-2.3-2.18-3.57-.24-5.83-.34-11.67-.05-17.49.18-3.87-1.41-4.84-4.95-4.81-14,.12-28-.1-42,.13-4.19.07-5.39-1.2-5.31-5.35.24-13.82,0-27.66.17-41.48,0-3.8-.91-5.47-4.94-5.31-6,.24-12,.12-18,0-2.73,0-3.86,1-3.78,3.84.15,5.83-.14,11.67.1,17.49.15,3.68-1,4.9-4.81,4.84-13.82-.21-27.64-.06-41.46-.05h-5.65V669h-51.17V644.54c6.79,0,13.56-.24,20.31.08,4.16.2,5.46-1.14,5.39-5.31-.21-14.32-.23-28.65,0-43,.07-4.23-1.65-5.07-5.29-5-6.65.18-13.3,0-20.79,0,0-6.85-.29-13.45.1-20,.29-4.93-1.52-6.19-6.23-6.09-13.32.29-26.64.12-40,.09C1084,565.4,1082.12,565.18,1080.05,565.05Zm-13.28-50.49c13.28,0,13.28,0,13.28-13.25v-.5c0-13.42,0-13.42-13.61-13.42-13.33,0-13.33,0-13.33,13.23C1053.11,514.56,1053.11,514.56,1066.77,514.56Z" transform="translate(-533.74 -123.86)"/><path class="cls-1" d="M922.82,800.79v24.89H897c0,7.64-.17,14.43.07,21.2.13,3.78-.79,5.44-5,5.11-5-.4-10,.21-15-.15-4.71-.35-6.38,1.07-6.26,6,.32,13.48.09,27,.08,40.47v5.3H794.1c0-6.9-.21-13.67.08-20.42.18-4.15-1.2-5.57-5.37-5.38-6.61.3-13.25.08-20.69.08,0-6.59,0-12.68,0-18.77,0-7.2,0-7.2-7.35-7.22-5,0-10,.18-15-.14-1.28-.09-3.47-1.72-3.52-2.72-.3-7.27-.16-14.57-.16-22.5h17.36c10.16,0,20.31-.09,30.47,0,2.95,0,4.15-.88,4.13-4-.1-15,.06-30-.13-45,0-1.35-1.87-3.78-3-3.82-7.77-.34-15.56-.18-23.91-.18v26.17c-7.82,0-15.11.13-22.37-.17-.92,0-2.46-2.4-2.5-3.72-.25-7.12-.12-14.25-.12-21.91-3.2-.16-6-.41-8.73-.41-13,0-26,0-39,.13-3.09,0-4.56-.67-4.44-4.16.25-6.79.07-13.59.07-21.07,7.35,0,14.13-.22,20.88.08,4.21.18,5.48-1.26,5.27-5.42-.34-6.62-.09-13.26-.09-20.28H741c0,7,.17,13.9-.08,20.82-.13,3.71,1,5,4.81,4.88,6.15-.27,12.32-.17,18.48-.05,2.76.06,3.93-.91,3.88-3.74-.11-6.5-.14-13,0-19.49.06-3-1.37-3.7-4-3.68-5.66,0-11.33-.23-17,0-3.81.15-5.24-1-5.18-5.05.24-13.82,0-27.65.2-41.47.09-4.44-1.39-5.77-5.73-5.7q-21,.33-42,0c-4.49-.08-5.82,1.48-5.55,5.79.33,5.14-.17,10.34.15,15.48.26,4.11-1.41,5-5.2,5-13.65-.17-27.31.24-40.95-.15-5.13-.14-6.26,1.61-6,6.24.34,6.31.09,12.64.09,19.7-7.74,0-15.3.15-22.84-.21-.79,0-2.05-3-2.06-4.68-.15-19.32-.11-38.65-.11-58v-13.7h25v13c0,12.67,0,12.67,12.89,12.67h7.49c6.66,0,6.67,0,6.69-6.48,0-6.29,0-12.58,0-19.55H673c12.82,0,25.64-.09,38.46,0,3.4,0,4.77-1.05,4.68-4.57-.2-7-.06-13.9-.06-21.15H741c0,6.81.22,13.43-.07,20-.19,4.26,1,6,5.56,5.75,6.6-.38,13.24-.1,20.52-.1,0,7.38.16,14.32-.07,21.25-.12,3.73,1.21,4.9,4.9,4.85,13.65-.17,27.3-.06,41-.06H819c0,7.17.22,13.94-.08,20.69-.18,4.22,1.38,5.53,5.45,5.33,5.48-.28,11,0,16.48-.11,2.81-.07,4.25.56,4.22,3.83q-.21,21.5,0,43c0,3.24-1,4.49-4.27,4.41-5.83-.12-11.66.13-17.48-.05-3.24-.1-4.47,1-4.37,4.29.18,5.82.2,11.66,0,17.48-.16,3.82,1,5.27,5.07,5.21,14.15-.22,28.3-.09,42.45-.07,1.3,0,2.6.13,4.22.22v25H845.13c0,8.51-.08,16.45.11,24.39,0,.8,1.6,2.21,2.48,2.24,7.16.19,14.33.27,21.47,0,1,0,2.72-2.21,2.79-3.47.3-5.65.12-11.32.15-17,0-1.63.14-3.25.23-5.14Z" transform="translate(-533.74 -123.86)"/><path class="cls-1" d="M1391.19,305.08H1210v-5.51c0-56.47.07-112.93-.13-169.39,0-5.16,1.41-6.33,6.42-6.32,56.43.19,112.87.12,169.31.13,1.79,0,3.58.16,5.57.25Zm-25.3-155.33H1235.74V280h130.15Z" transform="translate(-533.74 -123.86)"/><path class="cls-1" d="M533.77,800.77H714.55V982h-5.32c-56.6,0-113.19-.06-169.79.12-4.78,0-5.67-1.44-5.66-6,.13-56.12,0-112.24,0-168.36Zm156,25.47H559.31c-.09,1.69-.22,3-.22,4.31,0,40.15.07,80.31-.14,120.46,0,4.84,1.65,5.73,6,5.71q60-.19,119.91,0c4.23,0,5.35-1.36,5.34-5.41-.13-40-.1-80-.13-120C690,829.73,689.87,828.11,689.77,826.24Z" transform="translate(-533.74 -123.86)"/><path class="cls-1" d="M714.73,124.3V305H534.23c-.12-1.48-.34-3.06-.34-4.64q-.06-85.69-.15-171.38c0-3.87,1-5.14,5.06-5.13q85.65.2,171.31.11C711.56,124,713,124.18,714.73,124.3Zm-25.09,25.35c-1.75-.12-3-.28-4.35-.28-40.12,0-80.24.08-120.36-.12-5.06,0-6,1.74-5.94,6.32.15,39.63.07,79.27.08,118.91,0,1.75.21,3.51.36,5.86h9.39c38.46,0,76.91-.08,115.37.11,4.62,0,6-1.22,6-5.85-.17-39.14-.09-78.28-.12-117.42C690,154.74,689.79,152.29,689.64,149.65Z" transform="translate(-533.74 -123.86)"/><path class="cls-1" d="M1313.44,487.1h-25.39c0-7-.18-13.82.07-20.59.15-3.82-1-5.42-5-5.22-5.81.29-11.66.23-17.48,0-3.31-.1-4.36,1.2-4.28,4.4.17,7,.05,13.92.05,21.27H1236v-5.9c0-13.33-.19-26.66.14-40,.12-4.75-1.54-5.89-6-5.82-13.48.23-27,.08-40.45.07H1184V429.8c0-13.33.24-26.66-.1-40-.12-4.66,1.48-5.69,5.68-5.46,5.48.3,11,0,16.48.11,3,.08,4.1-1.1,4-4.11-.18-5.82.12-11.66-.15-17.48-.17-3.58,1.1-4.51,4.57-4.47,14.15.17,28.3.12,42.45,0,3.39,0,4.75.85,4.55,4.49-.31,5.82,0,11.66-.14,17.49-.08,3,1,4.18,4,4.11,6.16-.14,12.32-.17,18.48,0,3.33.09,4.3-1.31,4.23-4.46-.17-6.95,0-13.91,0-21.55,7.31,0,14.09-.18,20.85.07,3.82.13,5.41-1,5.2-5-.3-5.81,0-11.65-.08-17.48,0-2.52.88-3.64,3.46-3.63,15.31.07,30.63.06,46,.11a8.85,8.85,0,0,1,2,.67c0,5.61-.07,11.39,0,17.17.13,8.59-1.44,8.1,7.92,8.13,5.79,0,11.58,0,17.72,0V409h-24.9V383.77c-2.19-.17-3.78-.39-5.38-.4-14,0-28,.18-42-.11-4.56-.09-5.55,1.49-5.52,5.73.16,30.64.09,61.29.1,91.94ZM1288,423.33c0-3.32-.13-6.65,0-10,.15-3.05-1.12-4.11-4.1-4-6.14.13-12.29.16-18.43,0-3.38-.1-4.35,1.38-4.16,4.48s0,6,0,9c0,13.75,0,13.75,13.75,13.73C1288.05,436.46,1288.05,436.46,1288,423.33Z" transform="translate(-533.74 -123.86)"/><path class="cls-1" d="M742.87,540.5c15.17,0,30.14-.17,45.1.1,4.74.09,6.34-1.21,6.22-6.13-.32-13.31-.09-26.64-.08-40,0-1.79,0-3.58,0-5.7h50.53c.13,1.62.35,3.06.35,4.5,0,22.48-.07,45,.12,67.44,0,3.84-1.21,4.77-4.84,4.75-22.47-.14-44.94,0-67.41-.14-4.54,0-6.27,1.25-6,5.89a151,151,0,0,1,0,16.48c-.17,3.74,1.22,4.92,4.88,4.88,14.14-.16,28.3.07,42.44-.16,3.8-.07,5,1.08,4.84,4.77-.22,6.45-.06,12.93-.06,20.26-7.21,0-14,.22-20.7-.09-4.19-.19-5.6,1.26-5.39,5.39.27,5.65,0,11.32.08,17,.05,2.42-.56,3.78-3.27,3.75-6.16-.07-12.32-.08-18.48,0-2.88.05-3.18-1.6-3.16-3.85.06-5.49-.22-11,.08-16.48.23-4.25-1-6.06-5.55-5.81-5.64.31-11.31,0-17,.05-2.49,0-3.59-.82-3.58-3.47.08-23.81.08-47.62.12-71.43A9.43,9.43,0,0,1,742.87,540.5Z" transform="translate(-533.74 -123.86)"/><path class="cls-1" d="M714.74,332.44v24.9c-7,0-13.81.17-20.56-.07-3.79-.13-5.45.88-5.22,5a172.73,172.73,0,0,1,0,17.48c-.18,3.87,1.37,4.88,5,4.74,5.82-.24,11.67-.23,17.48.07,1.23.06,3.36,1.77,3.41,2.8.3,7.1.16,14.23.16,22-7.12,0-13.74.2-20.33-.07-4.26-.17-6,1.09-5.72,5.63.38,6.59.1,13.23.1,20.49-7.15,0-13.77.22-20.36-.08-4.23-.19-6.09.92-5.77,5.52a106.55,106.55,0,0,1,0,16c-.38,4.87,1.67,6,6.05,5.77,6.44-.28,12.91-.07,19.73-.07V487.4c-6.76,0-13.38.28-20-.1-4.76-.27-6,1.52-5.82,6,.33,6.44.08,12.9.08,20H645.63c-9.83,0-19.65-.06-29.47.09-3,.05-4.25-.83-4.17-3.94.15-5.66.14-11.33,0-17-.08-3,1-4.14,4.08-4.06,5.65.17,11.33-.19,17,.13,4.14.23,5.05-1.47,5-5.24-.13-22.32.1-44.65-.16-67-.06-5,1.51-6.36,6.23-6,5.13.41,10.32,0,15.48.17,3.14.1,4.59-1,4.53-4.3-.13-6.16-.16-12.33,0-18.49.11-3.6-1.48-4.57-4.81-4.47-5.82.19-11.66-.07-17.48.09-2.78.08-3.91-.86-3.87-3.68.09-5.82,0-11.66,0-17.48,0-2.65.83-3.89,3.78-3.79,6,.19,12-.09,18,0,3.23.07,4.48-1.21,4.42-4.41-.13-6-.18-12,.12-18,.06-1.26,1.77-3.48,2.75-3.49C682.79,332.38,698.56,332.44,714.74,332.44Z" transform="translate(-533.74 -123.86)"/><path class="cls-1" d="M819,253.2H794.47c-.12-1.79-.33-3.53-.34-5.27,0-13.31,0-26.63,0-39.94,0-6.66,0-6.66-6.91-6.66H742.47V150.39c1.94-.12,3.73-.34,5.52-.33,13.3,0,26.62-.06,39.92.28,4.63.11,6.61-1,6.29-6-.42-6.58-.1-13.2-.1-20H819c0,7.13.18,13.92-.07,20.7-.16,4,1.35,5.21,5.2,5.07,6.77-.24,13.56-.07,20.61-.07v51.3c-6.59,0-13.18.31-19.72-.1-4.92-.3-6.2,1.45-6.1,6.2.29,13.31.09,26.62.08,39.94Z" transform="translate(-533.74 -123.86)"/><path class="cls-1" d="M820.15,461.36v-23c0-8.16-.13-16.32,0-24.48.08-3.51-1.22-4.69-4.67-4.57-5.82.21-11.66-.07-17.48.08-3,.08-4.14-.94-4-4,.21-5.83,0-11.67.2-17.48.06-1.19,1.49-3.31,2.31-3.32,15.94-.2,31.87-.14,48.49-.14v17.93c0,9.66.15,19.33-.06,29-.08,3.87,1.06,5.27,5.1,5.2,14-.23,28,0,42-.18,3.87-.05,5.19,1.14,5.14,5.09-.21,14.66,0,29.32-.19,44a8.91,8.91,0,0,1-1.78,5.43,96.27,96.27,0,0,0-22.89,44.94c-.06-1.15-.15-2.29-.18-3.44s0-2.33,0-3.5c0-20.65-.09-41.31.13-62,0-4.44-1.37-5.71-5.71-5.64C851.37,461.5,836.23,461.36,820.15,461.36Z" transform="translate(-533.74 -123.86)"/><path class="cls-1" d="M1132,201.89V124.05c7.84,0,15.27-.13,22.69.18.87,0,2.31,2.53,2.36,3.92.24,7.11.11,14.23.11,21.87,7.55,0,14.49.18,21.41-.08,3.69-.13,5,1,4.85,4.79-.28,6.61-.07,13.25-.07,20.41h-25.88V227h-77.37c0-7.44,0-14.71,0-22,0-3.53,2.8-2.71,4.74-2.72,13.48-.08,27,0,40.43-.06C1127.36,202.27,1129.47,202,1132,201.89Z" transform="translate(-533.74 -123.86)"/><path class="cls-1" d="M534.29,436.73h76.37v50.68H593c-8.77,0-7.9-.71-7.94,8.14,0,5.33,0,10.66-.07,16a8,8,0,0,1-.38,1.4H560V487.61H534.29Z" transform="translate(-533.74 -123.86)"/><path class="cls-1" d="M1001.08,253.33c-7.59,0-14.23.18-20.85-.07-3.82-.15-5.34,1-5.29,5,.19,14.49.15,29,0,43.48,0,3.38,1,4.79,4.58,4.67,5.82-.21,11.65.06,17.48,0,2.58,0,4,.6,4,3.59-.08,14.66,0,29.32-.12,44,0,1.12-1.59,3.16-2.49,3.19-7.27.26-14.55.14-22.37.14,0-7.47-.15-14.42.06-21.36.1-3.46-1.06-4.75-4.57-4.65-7,.21-13.9.06-21.24.06-.11-2.31-.25-4.09-.25-5.86,0-30.49.09-61-.12-91.45,0-4.67,1.36-6,5.89-5.87,13.31.26,26.64.23,39.95,0,4.2-.07,5.53,1.39,5.35,5.47C1000.88,240,1001.08,246.27,1001.08,253.33Z" transform="translate(-533.74 -123.86)"/><path class="cls-1" d="M923,227.37c-16.18,0-31.32.16-46.46-.1-4.39-.07-5.88,1.2-5.65,5.63.33,6.59.08,13.22.08,20.13H846.57v-50.7c6.91,0,13.71-.13,20.5,0,3.83.1,5.21-1.21,5.15-5.19-.22-13.65-.09-27.3-.09-41v-6.15c7.68,0,15-.06,22.22,0,3.43,0,2.64,2.82,2.65,4.82.06,14.15,0,28.3.07,42.46,0,1.3.11,2.6.22,4.9,7,0,13.7.22,20.43-.08,4.13-.18,5.58,1.14,5.37,5.34C922.77,214,923,220.43,923,227.37Z" transform="translate(-533.74 -123.86)"/><path class="cls-1" d="M845,357.09H794.12c0-6.57-.3-13.16.09-19.71.29-4.85-1.34-6.46-6.16-6.12-5.46.39-11,0-16.46.12-2.63.07-3.56-1-3.52-3.49.11-6,.18-12,0-18-.06-3,1.34-3.61,4-3.54,5.82.14,11.64-.08,17.46.09,3.49.11,4.7-1.29,4.59-4.71-.19-5.32.3-10.67-.12-16-.36-4.61,1.45-5.77,5.67-5.52a140.86,140.86,0,0,0,15,0c3.24-.16,4.54.87,4.4,4.2-.2,4.48-.1,9,0,13.48.1,8.85-1.3,8.46,8.73,8.48,4.66,0,9.33-.21,14,.14,1.16.09,3.13,2,3.14,3.05C845,325.24,845,340.86,845,357.09Z" transform="translate(-533.74 -123.86)"/><path class="cls-1" d="M767,878.9c0,6.47,0,12.74,0,19,0,6.62,0,6.64,6.37,6.65s12.58,0,19.28,0v51H742.54V878.9Z" transform="translate(-533.74 -123.86)"/><path class="cls-1" d="M1132.22,487.4V462.52h14.83c10.92,0,10.92,0,10.93-11.14V436.94h25.35c0,6.9.2,13.7-.07,20.48-.16,3.91,1.11,5.31,5.08,5.16,6.77-.27,13.57-.08,20.7-.08v24.83h-25.55V513H1158c0-6.78-.21-13.55.07-20.3.18-4.13-1.17-5.57-5.37-5.37C1146.08,487.63,1139.42,487.4,1132.22,487.4Z" transform="translate(-533.74 -123.86)"/><path class="cls-1" d="M924.41,124h14.94c19,0,37.91.09,56.86-.06,3.63,0,5.08,1,4.94,4.79-.25,6.62-.07,13.26-.07,20.63h-8.25c-13,0-25.93.11-38.9-.08-3.62,0-5.08.92-4.94,4.74.25,6.93.07,13.87.07,21.09H924.41Z" transform="translate(-533.74 -123.86)"/><path class="cls-1" d="M896.77,956.62v25h-50.7c0-6.47-.28-13,.1-19.59.28-4.79-1.17-6.45-6.09-6.1-6.41.46-12.88.11-19.67.11V931H871c0,6.68.26,13.27-.08,19.83-.24,4.58,1.22,6.17,5.87,5.89C883.19,956.34,889.66,956.62,896.77,956.62Z" transform="translate(-533.74 -123.86)"/><path class="cls-1" d="M1080.34,981.75V957c1.47-.15,2.75-.38,4-.38,22.6,0,45.19.09,67.79-.1,4.07,0,5.17,1.38,5,5.15-.21,6.59-.06,13.19-.06,20Z" transform="translate(-533.74 -123.86)"/><path class="cls-1" d="M1339.14,565.07H1314.4c-.14-1.52-.35-2.81-.35-4.09,0-22.48.08-45-.09-67.44,0-3.94,1.11-5.29,5.07-5.13,6.59.28,13.21.08,20.11.08Z" transform="translate(-533.74 -123.86)"/><path class="cls-1" d="M1104.9,670.86c.16,1.54.42,2.83.42,4.13,0,14-.06,28,.08,41.92,0,3.69-1.19,5-4.94,4.76-5.47-.32-11-.2-16.46-.09-3,.07-4.12-1-4-4.09.19-5.31-.28-10.67.15-16,.41-5-1.59-6.34-6.25-6a134.56,134.56,0,0,1-15.94,0c-1.34-.08-3.69-1.57-3.73-2.49-.3-7.26-.17-14.54-.17-22.1Z" transform="translate(-533.74 -123.86)"/><path class="cls-1" d="M924.48,904.79H949q0,9.4,0,18.75c0,7.1,0,7.1,7,7.09,5.15,0,10.32-.2,15.46.11,1.25.07,3.38,1.78,3.42,2.8.3,7.27.16,14.56.16,22.18H924.48Z" transform="translate(-533.74 -123.86)"/><path class="cls-1" d="M559.08,644.54c0,7.42.21,14.05-.07,20.67-.18,4,1,5.65,5.25,5.44,6.62-.33,13.27-.09,20.78-.09,0,7.79.09,15.35-.14,22.91,0,.72-2.08,2-3.21,2-14.78.15-29.57.08-44.35.14-2.53,0-3.53-.9-3.52-3.51.07-14.79,0-29.58.12-44.36,0-1.08,1.63-3,2.56-3.05C543.77,644.42,551.06,644.54,559.08,644.54Z" transform="translate(-533.74 -123.86)"/><path class="cls-1" d="M637,357.13h-77c0-7.44-.18-14.72.21-22,.06-1,3-2.61,4.59-2.63,18-.19,36-.13,53.94-.13,4.83,0,9.66,0,14.48,0,2.25,0,3.85.36,3.8,3.23C637,342.59,637,349.56,637,357.13Z" transform="translate(-533.74 -123.86)"/><path class="cls-1" d="M1210,670.83h25.36v16.06c0,10.14-.09,20.27.07,30.4,0,3.23-1,4.49-4.3,4.39-5.64-.17-11.28,0-16.93,0-2.26,0-4.26-.08-4.24-3.35C1210.07,702.67,1210,687.06,1210,670.83Z" transform="translate(-533.74 -123.86)"/><path class="cls-1" d="M1183.33,696.52c0,7.86.12,15-.14,22.1a4.21,4.21,0,0,1-2.94,2.86c-15.63.15-31.27.06-46.9,0-.29,0-.58-.29-1.11-.57v-24.4h51.09Z" transform="translate(-533.74 -123.86)"/><path class="cls-1" d="M612.09,748.8H663c0,7.57.11,14.86-.15,22.13,0,1-2.05,2.58-3.17,2.6q-22.21.29-44.45.06c-1,0-2.94-1.44-3-2.25C612,763.91,612.09,756.47,612.09,748.8Z" transform="translate(-533.74 -123.86)"/><path class="cls-1" d="M896.2,357.05H872.59V306.54c7.36,0,14.92-.07,22.46.13.68,0,1.86,1.84,1.86,2.83.07,15.47,0,30.94-.1,46.42C896.81,356.2,896.52,356.48,896.2,357.05Z" transform="translate(-533.74 -123.86)"/><path class="cls-1" d="M950.35,409.31V384.9a38,38,0,0,1,4.26-.45c13.82,0,27.64.1,41.46-.11,4-.07,5.3,1.22,5.1,5.12-.28,5.48.06,11-.29,16.48-.08,1.18-1.92,3.21-3,3.23C982.27,409.38,966.63,409.31,950.35,409.31Z" transform="translate(-533.74 -123.86)"/><path class="cls-1" d="M766.72,411V435.4H752.14c-10.49,0-21,0-31.47,0-2.5,0-4.66,0-4.59-3.51.14-6.82,0-13.64,0-21Z" transform="translate(-533.74 -123.86)"/><path class="cls-1" d="M768.31,486.93V436.85h24.27v50.08Z" transform="translate(-533.74 -123.86)"/><path class="cls-1" d="M792.69,358.52v24.54H742.16c0-7.58-.08-14.85.11-22.12a3.4,3.4,0,0,1,2.38-2.31C760.57,358.49,776.49,358.52,792.69,358.52Z" transform="translate(-533.74 -123.86)"/><path class="cls-1" d="M636.82,566.56V591a39.16,39.16,0,0,1-4.25.47c-13.78,0-27.56-.17-41.34,0-4.25.07-5.46-1.45-5.26-5.46.28-5.3-.12-10.64.19-15.94.07-1.24,1.81-3.41,2.8-3.42C604.72,566.49,620.47,566.56,636.82,566.56Z" transform="translate(-533.74 -123.86)"/><path class="cls-1" d="M820.81,618.8H845v18.09c0,9.33-.11,18.66.06,28,.06,3.37-.87,4.82-4.47,4.66-5.66-.25-11.33.09-17-.24-1.2-.06-3.28-1.89-3.29-2.93-.2-15.49-.13-31-.1-46.47C820.23,619.62,820.51,619.34,820.81,618.8Z" transform="translate(-533.74 -123.86)"/><path class="cls-1" d="M912.49,506.16l44.43,5c-3.43,12.21-6.8,24.2-10.43,37.14Z" transform="translate(-533.74 -123.86)"/><path class="cls-1" d="M949.68,549.61c3.68-12.84,7-24.43,10.69-37.28,10.81,14.65,21,28.46,31.22,42.27l-.74,1.21Z" transform="translate(-533.74 -123.86)"/><path class="cls-1" d="M1391.44,956c-8,0-15.24.12-22.49-.13-1,0-2.7-1.9-2.74-3-.26-6.47-.25-12.95,0-19.42a3.81,3.81,0,0,1,2.52-2.71c6.63-.25,13.28-.3,19.91,0,1,0,2.66,1.92,2.69,3C1391.56,940.85,1391.44,948,1391.44,956Z" transform="translate(-533.74 -123.86)"/><path class="cls-1" d="M1080.32,149.35V124c7.68,0,15.09-.12,22.49.15.88,0,2.37,2.17,2.41,3.37.22,6.29.21,12.6-.12,18.88-.06,1-2.13,2.74-3.32,2.79C1094.84,149.49,1087.88,149.35,1080.32,149.35Z" transform="translate(-533.74 -123.86)"/><path class="cls-1" d="M1288,722.77h25v24.79c-7.38,0-14.81.12-22.23-.14-1,0-2.6-2-2.64-3.14C1287.92,737.32,1288,730.34,1288,722.77Z" transform="translate(-533.74 -123.86)"/><path class="cls-1" d="M1028.33,149.34V124c7.46,0,14.71-.12,22,.14,1,0,2.63,2,2.68,3.13.28,6.29.33,12.6,0,18.89,0,1.09-2,3-3.2,3C1042.87,149.48,1035.91,149.34,1028.33,149.34Z" transform="translate(-533.74 -123.86)"/><path class="cls-1" d="M872.46,929.57V904.63c7.42,0,14.53-.13,21.62.13,1,0,2.74,1.91,2.78,3,.25,7.12.13,14.26.13,21.83Z" transform="translate(-533.74 -123.86)"/><path class="cls-1" d="M819,981.77H794.55V956.61c7.32,0,14.43-.13,21.53.14,1,0,2.74,1.91,2.78,3C819.11,966.87,819,974,819,981.77Z" transform="translate(-533.74 -123.86)"/><path class="cls-1" d="M976.23,982V956.68c7.52,0,14.92-.11,22.3.16.88,0,2.37,2.13,2.42,3.31.24,6.13.26,12.28,0,18.41,0,1.19-1.85,3.25-2.91,3.29C990.92,982.15,983.83,982,976.23,982Z" transform="translate(-533.74 -123.86)"/><path class="cls-1" d="M1365,435.44c-7.43,0-14.4-.07-21.38,0-2.54,0-3.61-.89-3.56-3.48.09-6.16-.1-12.32.17-18.47,0-1.06,1.79-2.9,2.79-2.93,7.27-.26,14.55-.14,22-.14Z" transform="translate(-533.74 -123.86)"/><path class="cls-1" d="M1183.37,305.16H1158c0-7.58-.11-15,.16-22.35,0-.86,2.13-2.29,3.32-2.34,6.13-.25,12.27-.31,18.39,0,1.21.06,3.3,1.86,3.34,2.93C1183.52,290.45,1183.37,297.55,1183.37,305.16Z" transform="translate(-533.74 -123.86)"/><path class="cls-1" d="M1391.43,618.77c0,7.63.12,14.75-.13,21.87,0,1-1.89,2.71-3,2.75-6.31.26-12.64.22-18.95,0-1.12,0-3.12-1.34-3.15-2.11-.24-7.42-.14-14.86-.14-22.52Z" transform="translate(-533.74 -123.86)"/><path class="cls-1" d="M1287.39,696.58c0,7.66.14,14.6-.14,21.53,0,1.17-1.87,3.18-3,3.23-6.45.33-12.92.33-19.37.08-1,0-2.75-1.87-2.79-2.94-.27-6.29-.27-12.6,0-18.89,0-1,1.78-2.85,2.78-2.88C1272.17,696.46,1279.44,696.58,1287.39,696.58Z" transform="translate(-533.74 -123.86)"/><path class="cls-1" d="M1339.13,593v24.45c-7.59,0-15.16.1-22.73-.13-.83,0-2.26-1.89-2.29-2.93-.2-7-.1-13.94-.1-21.39Z" transform="translate(-533.74 -123.86)"/><path class="cls-1" d="M1340.35,487.09V462.84h24.76v24.25Z" transform="translate(-533.74 -123.86)"/><path class="cls-1" d="M1391.2,566.58v24.5h-25.09c0-7.56-.07-15,.13-22.43,0-.72,1.75-2,2.71-2C1376.23,566.5,1383.51,566.58,1391.2,566.58Z" transform="translate(-533.74 -123.86)"/><path class="cls-1" d="M1106,618.75h25.29c0,7.64.1,15.07-.14,22.49,0,.79-2,2.15-3.06,2.18-6.3.19-12.63.21-18.92-.13-1.11,0-3-2-3-3.15C1105.88,633.19,1106,626.23,1106,618.75Z" transform="translate(-533.74 -123.86)"/><path class="cls-1" d="M870.71,124.32v24.61H846.49V124.32Z" transform="translate(-533.74 -123.86)"/><path class="cls-1" d="M1002.36,175.39V150c7.36,0,14.47-.14,21.57.16,1.09,0,2.93,2.11,3,3.31a169.48,169.48,0,0,1-.05,18.45c-.07,1.21-2.2,3.21-3.46,3.27C1016.61,175.56,1009.8,175.39,1002.36,175.39Z" transform="translate(-533.74 -123.86)"/><path class="cls-1" d="M1053.11,176.53c0,7.8.1,14.93-.12,22.06a3.75,3.75,0,0,1-2.58,2.64c-7.27.23-14.54.13-22.1.13V176.53Z" transform="translate(-533.74 -123.86)"/><path class="cls-1" d="M1001,201.15h-24.9c0-7.71-.07-15.27.12-22.82,0-.76,1.66-2.07,2.58-2.1,6.46-.19,12.94-.23,19.4,0a3.85,3.85,0,0,1,2.68,2.6C1001.11,186.07,1001,193.34,1001,201.15Z" transform="translate(-533.74 -123.86)"/><path class="cls-1" d="M1080.33,617.4V592.82h24.88c0,7.52.06,15.06-.1,22.59,0,.68-1.49,1.88-2.3,1.9C1095.41,617.46,1088,617.4,1080.33,617.4Z" transform="translate(-533.74 -123.86)"/><path class="cls-1" d="M534.11,539.4V514.75H559c0,7.52.08,14.93-.11,22.34a3.4,3.4,0,0,1-2.47,2.21C549.18,539.48,541.89,539.4,534.11,539.4Z" transform="translate(-533.74 -123.86)"/><path class="cls-1" d="M558.82,748.53V773.6H542.31c-8.42,0-8.41,0-8.34-8.42,0-4.32-.19-8.65.16-12.94.1-1.3,1.69-3.5,2.67-3.55C544,748.39,551.3,748.53,558.82,748.53Z" transform="translate(-533.74 -123.86)"/><path class="cls-1" d="M688.83,722.91V747.6c-7.51,0-14.78.11-22-.13-.91,0-2.49-1.79-2.53-2.8-.22-7.12-.11-14.25-.11-21.76Z" transform="translate(-533.74 -123.86)"/><path class="cls-1" d="M690.14,721.29c0-7.62-.09-15,.14-22.47,0-.79,1.94-2.15,3-2.18,7-.2,13.92-.11,21.32-.11v24.76Z" transform="translate(-533.74 -123.86)"/><path class="cls-1" d="M923,696.52c0,7.87.12,15-.14,22.13,0,1-1.89,2.7-3,2.76-6.31.34-12.64.41-19,.22-1,0-2.68-1.88-2.72-2.94-.25-6.31-.27-12.65,0-19a4.45,4.45,0,0,1,3.09-3.06C908.28,696.38,915.25,696.52,923,696.52Z" transform="translate(-533.74 -123.86)"/><path class="cls-1" d="M1027,305.09h-24.93c0-7.53-.12-14.8.15-22.06,0-.91,2-2.46,3.15-2.52a175.8,175.8,0,0,1,17.93-.07c1.29.07,3.47,2.12,3.53,3.35C1027.2,290.73,1027,297.69,1027,305.09Z" transform="translate(-533.74 -123.86)"/><path class="cls-1" d="M636.79,384.52V409H612.16c0-7.38-.06-14.78.09-22.18,0-.8,1.28-2.23,2-2.24C621.78,384.45,629.33,384.52,636.79,384.52Z" transform="translate(-533.74 -123.86)"/><path class="cls-1" d="M558.84,566.85v24.53c-7.56,0-15.12.07-22.68-.1-.7,0-2-1.46-2-2.27-.15-7.27-.09-14.55-.09-22.16Z" transform="translate(-533.74 -123.86)"/><path class="cls-1" d="M560,747.63c0-7.87-.1-15.13.12-22.37a3.82,3.82,0,0,1,2.67-2.6c7.24-.22,14.49-.12,22.23-.12,0,7.85.1,15.1-.12,22.34a3.79,3.79,0,0,1-2.59,2.63C575.07,747.73,567.82,747.63,560,747.63Z" transform="translate(-533.74 -123.86)"/><path class="cls-1" d="M923,305.33c-7.94,0-15.19.1-22.44-.13-.85,0-2.32-1.75-2.35-2.73-.22-6.3-.27-12.61,0-18.9,0-1.11,2-3,3.13-3.05,6.12-.31,12.26-.3,18.39,0,1.11,0,3.05,1.67,3.08,2.62C923.13,290.33,923,297.58,923,305.33Z" transform="translate(-533.74 -123.86)"/><path class="cls-1" d="M949,383.13H924.16c0-7.68-.09-15.1.14-22.52,0-.75,2-2,3.1-2.06,6.15-.2,12.31-.22,18.46.06,1.09,0,3,1.71,3,2.69C949.13,368.42,949,375.54,949,383.13Z" transform="translate(-533.74 -123.86)"/><path class="cls-1" d="M584.84,384.46V409.3c-7.5,0-15.05.1-22.58-.14-.79,0-2.13-2-2.17-3.11-.2-6.13-.25-12.29.07-18.41.06-1.11,2.06-3,3.22-3C570.32,384.31,577.28,384.46,584.84,384.46Z" transform="translate(-533.74 -123.86)"/><path class="cls-1" d="M923,409.06H898.53V384.53c7.41,0,15-.06,22.53.1.66,0,1.82,1.5,1.83,2.31C923,394.21,923,401.49,923,409.06Z" transform="translate(-533.74 -123.86)"/><path class="cls-1" d="M949,410.91c0,7.39.12,14.52-.14,21.63,0,1-1.93,2.64-3,2.67-7,.25-13.94.13-21.33.13V410.91Z" transform="translate(-533.74 -123.86)"/><path class="cls-1" d="M714.77,436.47v24.85c-7.49,0-14.76.11-22-.15-.92,0-2.5-2-2.54-3.13-.25-6.15-.24-12.32,0-18.47,0-1.07,1.75-2.93,2.74-3C700.1,436.35,707.22,436.47,714.77,436.47Z" transform="translate(-533.74 -123.86)"/><path class="cls-1" d="M714.74,488.52v24.84c-7.56,0-15.13.09-22.69-.15-.69,0-1.85-2.13-1.89-3.29-.19-6,0-12-.11-18,0-2.65,1.12-3.48,3.62-3.44C700.48,488.58,707.3,488.52,714.74,488.52Z" transform="translate(-533.74 -123.86)"/><path class="cls-1" d="M766.79,488.9V513H742.55V488.9Z" transform="translate(-533.74 -123.86)"/><path class="cls-1" d="M688.77,514.57v24.78c-7.5,0-15,.1-22.6-.14-.71,0-1.91-2.09-1.95-3.24-.18-6,0-12-.08-18,0-2.58,1-3.52,3.56-3.48C674.51,514.64,681.32,514.57,688.77,514.57Z" transform="translate(-533.74 -123.86)"/><path class="cls-1" d="M662.73,540.55v24.39H638.16c0-7.39-.07-15,.13-22.52,0-.64,1.86-1.76,2.88-1.78C648.15,540.48,655.13,540.55,662.73,540.55Z" transform="translate(-533.74 -123.86)"/><path class="cls-1" d="M690.07,540.79H715c0,7.56.11,14.84-.15,22.1,0,.87-2.11,2.35-3.28,2.4-6,.24-12,.24-18,0-1.2,0-3.32-1.51-3.35-2.38C690,555.65,690.07,548.38,690.07,540.79Z" transform="translate(-533.74 -123.86)"/><path class="cls-1" d="M662.75,592.56V617.4c-7.64,0-15,.09-22.43-.14-.8,0-2.18-1.94-2.22-3-.2-6.29-.2-12.61,0-18.9,0-1,1.59-2.64,2.49-2.66C647.87,592.47,655.12,592.56,662.75,592.56Z" transform="translate(-533.74 -123.86)"/><path class="cls-1" d="M714.67,617.44c-7.51,0-14.78.08-22-.11a3.44,3.44,0,0,1-2.41-2.34c-.19-7.26-.11-14.53-.11-22.13h24.56Z" transform="translate(-533.74 -123.86)"/><path class="cls-1" d="M611,618.52c0,7.84.14,15-.16,22.08,0,1-2.21,2.78-3.45,2.83a176.37,176.37,0,0,1-18-.11c-1.2-.07-3.21-1.92-3.27-3a177.79,177.79,0,0,1,0-18.47c.06-1.15,2-3.11,3.11-3.16C596.3,618.37,603.28,618.52,611,618.52Z" transform="translate(-533.74 -123.86)"/><path class="cls-1" d="M870.93,305.09H846.14c0-7.52-.1-14.8.13-22.06,0-.89,1.77-2.44,2.76-2.48,6.31-.25,12.64-.27,19-.07,1,0,2.8,1.54,2.82,2.41C871,290.16,870.93,297.44,870.93,305.09Z" transform="translate(-533.74 -123.86)"/><path class="cls-1" d="M767,305.1H742.15c0-7.62-.07-15,.12-22.41,0-.78,1.63-2.15,2.54-2.18,6.46-.22,12.93-.26,19.38-.06a3.78,3.78,0,0,1,2.68,2.53C767.09,290.22,767,297.48,767,305.1Z" transform="translate(-533.74 -123.86)"/><path class="cls-1" d="M955.46,576.5c-2-8.16-3.72-15.2-5.67-23.18L988,559.08l.43,1.33Z" transform="translate(-533.74 -123.86)"/><path class="cls-1" d="M934.36,596.86c4-13.65,8-27.3,12.31-41.88,2.18,9.36,4.22,17.85,6,26.39a4.21,4.21,0,0,1-1.24,3.43c-5.36,4.38-10.89,8.56-16.37,12.81Z" transform="translate(-533.74 -123.86)"/><path class="cls-1" d="M1003.87,535.49l-7.53,19.87c-4.15-5.58-7.81-10.48-12.27-16.45Z" transform="translate(-533.74 -123.86)"/><path class="cls-1" d="M1004.57,542.91l2.79-7,6.69,7Z" transform="translate(-533.74 -123.86)"/><path class="cls-1" d="M1210,800.47c7.92,0,14.88.07,21.84,0,2.56,0,3.61.9,3.59,3.45-.05,6.14.21,12.3-.12,18.42-.07,1.27-2.12,3.39-3.34,3.46-6.29.34-12.62.24-18.92,0-1,0-2.89-1.49-2.92-2.34C1209.86,816,1210,808.57,1210,800.47Z" transform="translate(-533.74 -123.86)"/><path class="cls-1" d="M1339.45,253.06h-77.1a28.81,28.81,0,0,1-.34-3c0-23,.08-46-.07-69,0-3.74,1.15-4.9,4.82-4.89,22.81.06,45.62,0,68.43-.15,2.85,0,4.3.88,4.29,4C1339.42,204.15,1339.45,228.3,1339.45,253.06Z" transform="translate(-533.74 -123.86)"/><path class="cls-1" d="M662.74,852.91v76.71c-1.67.12-3.12.31-4.57.32-22.45,0-44.9,0-67.35.09-2.88,0-4.81-.36-4.8-3.94.08-23.79.06-47.58.08-71.38a9.41,9.41,0,0,1,.46-1.8Z" transform="translate(-533.74 -123.86)"/><path class="cls-1" d="M662.77,176.36v76.58H586.45c-.13-1.86-.39-3.77-.39-5.69-.06-22,0-44-.19-66,0-4.14,1.13-5.23,5.38-5.19,21.8.2,43.61,0,65.42-.06C658.63,176,660.59,176.24,662.77,176.36Z" transform="translate(-533.74 -123.86)"/></svg>