<svg id="Layer_1" data-name="Layer 1" xmlns="http://www.w3.org/2000/svg" viewBox="0 0 559.95 560.22"><defs><style>.cls-1{fill:#282560;}</style></defs><path class="cls-1" d="M725.2,556.41h16.88v33.78h68.19V573.41l-.16.15,34.11-.15v17h34v51.12H810.5v17.16h50.35v16.83H827.51v16.84h50.67q-.06,8.57-.13,17.14l.14-.16H793.12l.15.16V607.79H759.13v33.72l.15-.15-17.1.17V607.81H725.33v33.72H708.05V624.27H691.2V607.81H657.71v16.87h16.23v16.7H623.28l.16.15V624.62h17V590.4l-.16.15H691V573.41H640.27l.16.15V522.42H623.28l.15.16V471.45H606.3l.14.15V454.46l-.14.16q31.4,0,62.78-.08c1.82,0,3.64-.17,5.45-.26,0,5.7,0,11.4,0,17.41H657.58c0,5.91,0,11.48,0,17.05h-17v16.53h17v17.19h16.85v17.3h-16.8v16.42h34V539.32H708V522.58H674.25V505.4H657.42q0-8.38,0-16.79H708V454.42H674.41V437.7H657.73V420.88H742v16.45H725.55v33.94H742V454.89H792.9v16.4H759.13v34.28l.15-.15-17.09.17V488.84H725.6v16.61h16.72v16.9h-17v34.2H708.59v33.57H725.2Zm135.69,67.86V607.75h-33.4v16.52Z" transform="translate(-555.66 -284.85)"/><path class="cls-1" d="M1048,794.3H1030.9l.15.16V777.72H996.93v16.74l.15-.14H980l.16.14v-17H963.24V760.62h-17.1V726.35l-.16.14h16.73V692.16H946.36V675.31H963V658.38h34.22V641.53h33.86l-.15-.15V692.5H1065l-.15-.14v16.91h50.7v17h-33.42v34.22h-17.26V726.73h-16.59v33.62H1065q-.09,8.55-.16,17.12l.16-.15h-17.13v17.14Zm-17.39-34.1V709.81H980.27V760.2Zm-50.37-84.56v16.5h16.4v-16.5Z" transform="translate(-555.66 -284.85)"/><path class="cls-1" d="M996.93,505.6h34.12l-.15-.16v17.3h-16.66v16.88h16.66v16.94l.15-.14h-34v17.12H980.34v16.59H997V573.4l34.1.16-.15-.15v51.12l.15-.14h-17.29V607.72H996.89v16.81H980V607.26H962.77V590.71H929.34v16.91h16.79v16.91H912V607.29H895V590.41h17v-17h34.2v-34H963.1v16.76h16.58V539.56H963q0-8.56,0-17.13h34.11v-17Z" transform="translate(-555.66 -284.85)"/><path class="cls-1" d="M555.66,845V726.7H673.9V845Zm17.09-101.39V828h84.31V743.61Z" transform="translate(-555.66 -284.85)"/><path class="cls-1" d="M674,403.3H555.69V285H674ZM572.69,301.68v84.55H657V301.68Z" transform="translate(-555.66 -284.85)"/><path class="cls-1" d="M997.38,284.85h118.23V403.14H997.38Zm17,17v84.37h84.33V301.81Z" transform="translate(-555.66 -284.85)"/><path class="cls-1" d="M759.3,777.31H708.43V845H691.72V760.59H708V743.52H691.51V675.35H657.25l.15.16V658.38h67.93v17.3h-16.8v50.44h17v-16.4h16.87v16.77h33.92l-.14-.14V743.6h-17v33.87Zm-33.77-33.68v16.46h16.36V743.63Z" transform="translate(-555.66 -284.85)"/><path class="cls-1" d="M793.26,828.45H776.32v16.62H759.63V811.49H776V794.61H759.3v-17.3l-.14.16h34.19V794.6h67.86v16.84H844.47V828h16.6V811.3l34.1.15-.14-.14v17.14l.14-.16h-16.9V845H793.12V828.32h16.75V811.73H793.26Z" transform="translate(-555.66 -284.85)"/><path class="cls-1" d="M572.46,522.59h-16.7V488.65h16.3v-51H555.69V420.92H640V437.3H606.3v17.32l.14-.16H589.72V471.6h16.72l-.14-.15v51.13h17.13l-.15-.16v33.71H606.56V539.72H572.33V522.45h16.74V505.86H572.46Z" transform="translate(-555.66 -284.85)"/><path class="cls-1" d="M946,369.5v34.15H963.1l-.15-.15v16.82h34.14v17.1l.14-.16H963v17.35l.16-.15H946V471.6l.15-.15H928.89v17.14H912q.08-25.56.14-51.12l-.15.14h16.73V420.48H912l.16.14q-.07-8.56-.16-17.12h16.74V386.91h-16.6v16.73h-17V369.5l-.16.14h17.13V352.51l-.15.14h17.13l-.14-.14v17.13h17.13Z" transform="translate(-555.66 -284.85)"/><path class="cls-1" d="M725.33,352.49H691.64V335.73h16.29V318.66H691.57V301.78h16.51V285h17v33.29H742V301.7h34.27l-.15-.15v16.84h-16.8c0,11.69,0,22.88,0,34.07,0,0,.14-.16.14-.16l-17.28.19.15.16V335.92H725.19v16.73Z" transform="translate(-555.66 -284.85)"/><path class="cls-1" d="M657.25,675.35v17H674V709h-33.6v-16.5H589.77V658.66h16.37V641.53h17.3l-.16-.15v17.23h17.25v16.9H657.4Z" transform="translate(-555.66 -284.85)"/><path class="cls-1" d="M894.88,301.88H911.8v16.5h67.84v34.11H963l.14.16V335.92H946v16.73l.15-.14H929l.14.14V335.92H912v16.73l.15-.14H895l.16.14q-.09-25.47-.17-50.93S894.88,301.88,894.88,301.88Z" transform="translate(-555.66 -284.85)"/><path class="cls-1" d="M640.43,590.4H606.5v16.85H589.63v17.11H572.34l.16.15v-33.9H555.73V556.92h16.52v16.64h68.18l-.16-.15v17.14Z" transform="translate(-555.66 -284.85)"/><path class="cls-1" d="M1065,488.57V471.63h-16.78V454.78H1065V437.49l-.15.15h16.94v-16.8h16.85v16.62h16.93v16.86h-33.38v17h33.25v17.06h-50.59Z" transform="translate(-555.66 -284.85)"/><path class="cls-1" d="M1064.86,624.39v16.92h50.71v17h-33.44v34.06h-17.27l.15.14V658.32h-17.22V641.38H1030.9l.15.15V624.39l-.15.14H1065Z" transform="translate(-555.66 -284.85)"/><path class="cls-1" d="M844.22,488.43H827.31V471.71H810.48v-34h-17v-16.9h33.41v16.82h17.28l-.14-.16v51.12Z" transform="translate(-555.66 -284.85)"/><path class="cls-1" d="M810.27,573.41h-16.7V522.7h16.71V505.46l-.15.15h34.09l-.14-.16v34.23h-34v33.89Z" transform="translate(-555.66 -284.85)"/><path class="cls-1" d="M1064.87,573.57h50.67v16.72h-33.4v34.1h-17.28l.16.14v-17.3h-16.76V590.36H1065v-17Z" transform="translate(-555.66 -284.85)"/><path class="cls-1" d="M963,454.61h16.92v16.88h33.85v16.82H996.93V505.6l.15-.16H979.87V488.29H946.13V471.45l-.15.15h17.13V454.46Z" transform="translate(-555.66 -284.85)"/><path class="cls-1" d="M1082,828.28h-17.1l.15.15V811.54h-17V794.3l-.14.16H1065V777.32l-.16.15h16.9v16.88h16.88v16.82h-16.81v17.26Z" transform="translate(-555.66 -284.85)"/><path class="cls-1" d="M912,777.48H945.7v16.73H929.29v34.08H912l.15.16V811.31H895l.14.14V794.32l-.14.14h17.13V777.32Z" transform="translate(-555.66 -284.85)"/><path class="cls-1" d="M793.12,726.5h50.61v16.73H827.08v17.25l.16-.15h-34v-34Z" transform="translate(-555.66 -284.85)"/><path class="cls-1" d="M572.34,624.36V709H555.77v-84.5h16.72Z" transform="translate(-555.66 -284.85)"/><path class="cls-1" d="M844.06,352.53v50.61H827.35V386.46H810.12l.15.16V352.68h33.94Z" transform="translate(-555.66 -284.85)"/><path class="cls-1" d="M844.2,301.51H827.36v34.16H793.31l.17.14v-17h16.64V284.88h33.93v16.78Z" transform="translate(-555.66 -284.85)"/><path class="cls-1" d="M1064.87,505.6h50.67v16.72h-33.39V556.4h-17.28l.14.16q0-25.56,0-51.12Z" transform="translate(-555.66 -284.85)"/><path class="cls-1" d="M742.17,352.49v50.68H725.33V352.49l-.14.16h17.13Z" transform="translate(-555.66 -284.85)"/><path class="cls-1" d="M1064.88,828.28V845h-50.54V828.43H1065Z" transform="translate(-555.66 -284.85)"/><path class="cls-1" d="M827.08,760.48H878v17l.16-.15h-51v-17Z" transform="translate(-555.66 -284.85)"/><path class="cls-1" d="M775.85,437.29h-16.6V387h16.6Z" transform="translate(-555.66 -284.85)"/><path class="cls-1" d="M1064.87,556.4v17.17l.15-.16H1030.9l.15.15V556.42l-.15.14H1065Z" transform="translate(-555.66 -284.85)"/><path class="cls-1" d="M844.21,352.68V336h34c0,5.39,0,10.94,0,16.49l.14-.16-34.28.23Z" transform="translate(-555.66 -284.85)"/><path class="cls-1" d="M707.92,403.3H691.57V370h16.35Z" transform="translate(-555.66 -284.85)"/><path class="cls-1" d="M759.52,539.76h16.32v33.38H759.52Z" transform="translate(-555.66 -284.85)"/><path class="cls-1" d="M844.22,505.6V488.43l-.14.16h34.1v17l-34.1-.14Z" transform="translate(-555.66 -284.85)"/><path class="cls-1" d="M1064.89,488.42q0,8.59,0,17.18l.15-.16H1030.9l.15.16v-17h34Z" transform="translate(-555.66 -284.85)"/><path class="cls-1" d="M844.22,437.63V420.92H878v16.69l.16-.14H844.08Z" transform="translate(-555.66 -284.85)"/><path class="cls-1" d="M878,369.52v33.7H861.39V369.67h16.79Z" transform="translate(-555.66 -284.85)"/><path class="cls-1" d="M979.93,828.32V845H946.32V828.47h33.76Z" transform="translate(-555.66 -284.85)"/><path class="cls-1" d="M1030.9,794.3v17h-34l.15.15V794.32l-.15.14h34.12Z" transform="translate(-555.66 -284.85)"/><path class="cls-1" d="M946.14,726.35h-34v-17l-.16.15h34v17Z" transform="translate(-555.66 -284.85)"/><path class="cls-1" d="M844.05,301.66l34.13,0-.15-.15v16.69H844.2V301.51Z" transform="translate(-555.66 -284.85)"/><path class="cls-1" d="M1099.29,743.64h16.31V760h-16.31Z" transform="translate(-555.66 -284.85)"/><path class="cls-1" d="M895.19,777.47v-17h16.95l-.15-.15q0,8.56,0,17.13l.15-.16H895Z" transform="translate(-555.66 -284.85)"/><path class="cls-1" d="M878,777.47h17.16l-.16-.15v17.14l.14-.14h-17v-17Z" transform="translate(-555.66 -284.85)"/><path class="cls-1" d="M980.09,811.3H963.41V794.46h16.7l-.16-.14v17.13Z" transform="translate(-555.66 -284.85)"/><path class="cls-1" d="M980.08,828.47q0-8.58,0-17.17l-.14.15h17.13l-.15-.15v17h-17Z" transform="translate(-555.66 -284.85)"/><path class="cls-1" d="M963.1,403.65V387h16.57V403.5H963Z" transform="translate(-555.66 -284.85)"/><path class="cls-1" d="M742,828.78v16.27h-16.5V828.78Z" transform="translate(-555.66 -284.85)"/><path class="cls-1" d="M912,828.29V845H895.17v-16.7l-.14.16h17.13Z" transform="translate(-555.66 -284.85)"/><path class="cls-1" d="M1081.83,828.43h16.69V845H1082V828.28Z" transform="translate(-555.66 -284.85)"/><path class="cls-1" d="M1013.9,437.49v16.7H997.22c0-5.72,0-11.32,0-16.92l-.14.15,17,.22Z" transform="translate(-555.66 -284.85)"/><path class="cls-1" d="M895.19,437.61v-17h17l-.16-.14v17.13l.15-.14H895Z" transform="translate(-555.66 -284.85)"/><path class="cls-1" d="M810.28,505.46H793.59V488.87h16.54v16.74Z" transform="translate(-555.66 -284.85)"/><path class="cls-1" d="M759.13,505.57h16.69v16.58H759.28V505.42Z" transform="translate(-555.66 -284.85)"/><path class="cls-1" d="M810.12,386.46v16.71H793.55V386.62h16.72Z" transform="translate(-555.66 -284.85)"/><path class="cls-1" d="M1065,437.49h-16.69V420.9h16.54v16.74Z" transform="translate(-555.66 -284.85)"/><path class="cls-1" d="M963,352.49v17H946l.16.14V352.51l-.15.14h17.13Z" transform="translate(-555.66 -284.85)"/><path class="cls-1" d="M912.14,760.5V743.8h16.58v16.55H912Z" transform="translate(-555.66 -284.85)"/><path class="cls-1" d="M878.18,369.67q.08-8.69.16-17.37l-.14.16,17,.19-.16-.14v17.13l.16-.14-17.16,0Z" transform="translate(-555.66 -284.85)"/><path class="cls-1" d="M776.12,352.53v16.7H759.45V352.3s-.14.17-.14.16l17,.22Z" transform="translate(-555.66 -284.85)"/><path class="cls-1" d="M1014.05,437.64v-16.7h16.57v16.55H1013.9Z" transform="translate(-555.66 -284.85)"/><path class="cls-1" d="M878,437.61h17.16l-.16-.14v16.69H878.19V437.47Z" transform="translate(-555.66 -284.85)"/><path class="cls-1" d="M776.27,352.68V335.8h17.2l-.16-.14c0,5.43,0,10.86,0,16.86h-17.2Z" transform="translate(-555.66 -284.85)"/><path class="cls-1" d="M946.17,301.27V285h16.5v16.25Z" transform="translate(-555.66 -284.85)"/><path class="cls-1" d="M878.18,301.7V285h16.7v16.92s.14-.17.14-.16l-17-.17Z" transform="translate(-555.66 -284.85)"/><path class="cls-1" d="M776.27,301.7V285h16.57v16.55H776.12Z" transform="translate(-555.66 -284.85)"/><path class="cls-1" d="M912.17,709.35H895l.14.16q-.06-8.57-.13-17.14h17.11q-.06,8.57-.14,17.14Z" transform="translate(-555.66 -284.85)"/><path class="cls-1" d="M793.12,709.34V726.5l.15-.15H776.14l.14.14,0-17.12-.15.15,17.11,0Z" transform="translate(-555.66 -284.85)"/><path class="cls-1" d="M895,709.34V726H878.19v-16.7l-.14.16h17.12Z" transform="translate(-555.66 -284.85)"/><path class="cls-1" d="M776.31,709.37H759.6V675.79h16.56v33.73Z" transform="translate(-555.66 -284.85)"/><path class="cls-1" d="M725.19,641.39h17.12v17.12H725.19Z" transform="translate(-555.66 -284.85)"/><path class="cls-1" d="M759.13,641.51h16.69V658.1H759.28V641.36Z" transform="translate(-555.66 -284.85)"/><path class="cls-1" d="M963.11,522.57H929.26v34H912V539.67H895.19V522.43l-.16.15h17.13V505.44l-.15.16h51.1Z" transform="translate(-555.66 -284.85)"/><path class="cls-1" d="M878.19,573.55H844.08V556.62H861V539.91h17.22Z" transform="translate(-555.66 -284.85)"/><path class="cls-1" d="M878.05,505.44l17.12.16-.14-.16v17.14l.16-.15H878.05Z" transform="translate(-555.66 -284.85)"/><path class="cls-1" d="M912.15,573.55H895V556.42h17.12Z" transform="translate(-555.66 -284.85)"/><ellipse class="cls-1" cx="330.94" cy="297.13" rx="12.11" ry="12.11"/><path class="cls-1" d="M912,641.39h34v-17h34.1v16.88h-17v17.24H929.26v34H912Z" transform="translate(-555.66 -284.85)"/><path class="cls-1" d="M912.15,624.39v17.13H895V624.39Z" transform="translate(-555.66 -284.85)"/><path class="cls-1" d="M878.05,641.39h17.12v16.68H878.05Z" transform="translate(-555.66 -284.85)"/><path class="cls-1" d="M895.17,692.5H878.05V675.81h17.12Z" transform="translate(-555.66 -284.85)"/><path class="cls-1" d="M1013.76,726.69v16.36H997.32V726.69Z" transform="translate(-555.66 -284.85)"/><path class="cls-1" d="M895.17,505.6V488.45h17L912,505.6l.15-.16H895Z" transform="translate(-555.66 -284.85)"/><path class="cls-1" d="M589.76,760.65h50.3V811h-50.3Z" transform="translate(-555.66 -284.85)"/><path class="cls-1" d="M640.06,369.33h-50.3V318.92h50.3Z" transform="translate(-555.66 -284.85)"/><path class="cls-1" d="M1081.55,369.33h-50.29V319h50.29Z" transform="translate(-555.66 -284.85)"/></svg>