<svg id="Layer_1" data-name="Layer 1" xmlns="http://www.w3.org/2000/svg" viewBox="0 0 198.93 263.41"><defs><style>.cls-1{fill:#fff;}.cls-2{fill:none;stroke:#fff;stroke-miterlimit:10;stroke-width:2px;}</style></defs><path class="cls-1" d="M-35.16-.77a9.78,9.78,0,0,1,2.88-6.94L21.24-61.23a9.81,9.81,0,0,1,13.89,0L88-8.32A9.82,9.82,0,0,1,88,5.56a9.82,9.82,0,0,1-13.88,0l-46-46L-18.4,6.18a9.82,9.82,0,0,1-13.88,0A9.79,9.79,0,0,1-35.16-.77Z" transform="translate(71.59 92.59)"/><path class="cls-1" d="M-35.16,132.53a9.78,9.78,0,0,1,2.88-6.94L21.24,72.07a9.81,9.81,0,0,1,13.89,0L88,125a9.81,9.81,0,0,1-13.88,13.88l-46-46L-18.4,139.47a9.8,9.8,0,0,1-13.88,0A9.77,9.77,0,0,1-35.16,132.53Z" transform="translate(71.59 92.59)"/><path class="cls-1" d="M90.91,47.53a9.8,9.8,0,0,1-9.76,9.82L-25.28,58a9.84,9.84,0,0,1-9.12-6,9.8,9.8,0,0,1,2.12-10.72L21.24-12.32a9.83,9.83,0,0,1,13.89,0L88,40.59A9.8,9.8,0,0,1,90.91,47.53ZM-1.51,38.19l59.05-.34L28.18,8.5Z" transform="translate(71.59 92.59)"/><path class="cls-2" d="M115.53,169.83H-59.77A10.83,10.83,0,0,1-70.59,159V-80.77A10.83,10.83,0,0,1-59.77-91.59h175.3a10.83,10.83,0,0,1,10.81,10.82V159A10.83,10.83,0,0,1,115.53,169.83ZM-59.77-88.88a8.12,8.12,0,0,0-8.11,8.11V159a8.12,8.12,0,0,0,8.11,8.11h175.3a8.12,8.12,0,0,0,8.11-8.11V-80.77a8.12,8.12,0,0,0-8.11-8.11Z" transform="translate(71.59 92.59)"/></svg>